<svg id="Layer_1" height="512" viewBox="0 0 256 256" width="512" xmlns="http://www.w3.org/2000/svg"><g><g><g><circle cx="56.955" cy="56.948" fill="#e63950" r="31.841"/></g><g><circle cx="199.045" cy="56.948" fill="#e63950" r="31.841"/></g></g><g><g><circle cx="56.955" cy="199.052" fill="#e63950" r="31.841"/></g><g><circle cx="199.045" cy="199.052" fill="#e63950" r="31.841"/></g></g><g><g><g><path d="m121.88 53.69h32.034c1.815 0 3.287-1.472 3.287-3.287v-8.343c0-1.815-1.472-3.287-3.287-3.287h-32.034z" fill="#478cf7"/></g><g><path d="m153.914 38.772h-1.713v6.63c0 1.815-1.472 3.287-3.287 3.287h-27.034v5h32.034c1.815 0 3.287-1.472 3.287-3.287v-8.343c0-1.815-1.471-3.287-3.287-3.287z" fill="#377de2"/></g><g><path d="m121.88 32.153v28.155c0 1.691-1.926 2.66-3.283 1.652l-18.967-14.077c-1.108-.823-1.108-2.481 0-3.304l18.967-14.078c1.358-1.007 3.283-.038 3.283 1.652z" fill="#478cf7"/></g><g><path d="m118.597 30.501-1.717 1.274v23.533c0 1.691-1.926 2.66-3.283 1.652l-14.772-10.963c-.079.695.18 1.423.805 1.886l18.967 14.078c1.357 1.008 3.283.039 3.283-1.652v-28.156c0-1.69-1.925-2.659-3.283-1.652z" fill="#377de2"/></g></g><g><g><path d="m134.12 217.44h-32.034c-1.815 0-3.287-1.472-3.287-3.287v-8.343c0-1.815 1.472-3.287 3.287-3.287h32.034z" fill="#478cf7"/></g><g><path d="m129.12 202.523v9.917h-30.321v1.713c0 1.815 1.472 3.287 3.287 3.287h32.034v-14.917z" fill="#377de2"/></g><g><path d="m134.12 195.904v28.155c0 1.691 1.926 2.66 3.283 1.652l18.967-14.078c1.108-.823 1.108-2.481 0-3.304l-18.967-14.078c-1.358-1.007-3.283-.038-3.283 1.653z" fill="#478cf7"/></g><g><path d="m156.37 208.33-4.195-3.114c-.061.539-.321 1.059-.805 1.418l-17.251 12.804v4.622c0 1.691 1.926 2.66 3.283 1.652l18.967-14.078c1.109-.823 1.109-2.482.001-3.304z" fill="#377de2"/></g></g></g><g><g><g><path d="m217.334 121.987v32.034c0 1.815-1.472 3.287-3.287 3.287h-8.343c-1.815 0-3.287-1.472-3.287-3.287v-32.034z" fill="#478cf7"/></g><g><path d="m212.334 121.987v27.034c0 1.815-1.472 3.287-3.287 3.287h-6.63v1.713c0 1.815 1.472 3.287 3.287 3.287h8.343c1.815 0 3.287-1.472 3.287-3.287v-32.034z" fill="#377de2"/></g><g><path d="m195.798 121.987h28.155c1.691 0 2.66-1.926 1.652-3.283l-14.078-18.967c-.823-1.108-2.481-1.108-3.304 0l-14.078 18.967c-1.007 1.357-.038 3.283 1.653 3.283z" fill="#478cf7"/></g><g><path d="m225.605 118.703-14.078-18.967c-.463-.624-1.191-.884-1.886-.805l10.964 14.772c1.008 1.357.039 3.283-1.652 3.283h-23.533l-1.274 1.717c-1.008 1.357-.039 3.283 1.652 3.283h28.155c1.691.001 2.66-1.925 1.652-3.283z" fill="#377de2"/></g></g><g><g><path d="m53.583 134.226v-32.034c0-1.815-1.472-3.287-3.287-3.287h-8.343c-1.815 0-3.287 1.472-3.287 3.287v32.034z" fill="#478cf7"/></g><g><path d="m50.296 98.905h-1.713v30.321h-9.917v5h14.917v-32.034c0-1.815-1.471-3.287-3.287-3.287z" fill="#377de2"/></g><g><path d="m32.047 134.226h28.155c1.691 0 2.66 1.926 1.652 3.283l-14.078 18.967c-.823 1.108-2.481 1.108-3.304 0l-14.078-18.967c-1.007-1.357-.038-3.283 1.653-3.283z" fill="#478cf7"/></g><g><path d="m60.202 134.226h-4.622l-12.804 17.251c-.359.484-.879.743-1.418.805l3.114 4.195c.823 1.108 2.481 1.108 3.304 0l14.078-18.967c1.008-1.358.039-3.284-1.652-3.284z" fill="#377de2"/></g></g></g><g><g><path d="m219.488 75.122c-2.061 2.259-5.355 2.857-8.091 1.489-3.717-1.858-7.911-2.903-12.353-2.903s-8.635 1.044-12.353 2.903c-2.74 1.368-6.034.765-8.1-1.499-4.486-4.918-7.223-11.461-7.223-18.648 0-8.14 3.515-15.457 9.108-20.52 5.008-4.536 11.691-7.263 19.008-7.151 13.415.211 24.656 10.143 26.843 23.049.211 1.215.337 2.457.378 3.717.24 7.544-2.537 14.438-7.217 19.563z" fill="#6d2e03"/></g><g><path d="m199.044 75.739c-9.002 0-16.299-7.297-16.299-16.299v-8.46c0-9.002 7.297-16.299 16.299-16.299 9.002 0 16.299 7.297 16.299 16.299v8.461c0 9.001-7.297 16.298-16.299 16.298z" fill="#ffd2c0"/></g><g><path d="m209.389 38.385c2.314 2.814 3.704 6.417 3.704 10.345v8.461c0 9.002-7.297 16.299-16.299 16.299-3.928 0-7.531-1.39-10.345-3.704 2.989 3.635 7.521 5.954 12.595 5.954 9.002 0 16.299-7.297 16.299-16.299v-8.461c0-5.074-2.319-9.606-5.954-12.595z" fill="#fcc4ae"/></g><g><path d="m182.746 59.44v-5.093c-2.899 0-5.25 2.35-5.25 5.25s2.351 5.25 5.25 5.25c.306 0 .603-.032.895-.082-.577-1.669-.895-3.46-.895-5.325z" fill="#ffd2c0"/></g><g><path d="m215.343 54.347v5.093c0 1.865-.318 3.656-.894 5.325.291.05.589.082.894.082 2.9 0 5.25-2.35 5.25-5.25s-2.35-5.25-5.25-5.25z" fill="#ffd2c0"/></g><g><path d="m218.578 55.462c.699.892 1.115 2.015 1.115 3.235 0 2.81-2.208 5.105-4.984 5.243-.08.278-.167.553-.261.825.291.05.589.082.895.082 2.9 0 5.25-2.35 5.25-5.25 0-1.679-.788-3.174-2.015-4.135z" fill="#fcc4ae"/></g><g><g><circle cx="192.11" cy="57.305" fill="#995222" r="1.975"/></g><g><circle cx="207.429" cy="57.305" fill="#995222" r="1.975"/></g></g><g><g><path d="m182.746 59.44v-2.86c-1.666 0-3.017 1.351-3.017 3.017s1.351 3.017 3.017 3.017c.106 0 .206-.021.309-.031-.198-1.018-.309-2.067-.309-3.143z" fill="#f2ad97"/></g><g><path d="m215.346 59.44v-2.86c1.666 0 3.017 1.351 3.017 3.017s-1.351 3.017-3.017 3.017c-.106 0-.206-.021-.309-.031.198-1.018.309-2.067.309-3.143z" fill="#f2ad97"/></g></g><g><g><g><path d="m226.507 53.037c-.051-.4-.11-.798-.179-1.193-2.187-12.906-13.428-22.837-26.843-23.049-7.241-.111-13.86 2.558-18.85 7.009 5.911 13.935 31.516 22.938 45.872 17.233z" fill="#8c3f0a"/></g></g></g><g><g><g><g><path d="m226.507 53.037c-.051-.4-.11-.798-.179-1.193-2.187-12.906-13.428-22.837-26.843-23.049-7.241-.111-13.86 2.558-18.85 7.009 5.911 13.935 31.516 22.938 45.872 17.233z" fill="#8c3f0a"/></g></g></g></g><g><path d="m226.328 51.844c-1.182-6.976-5.013-13.079-10.399-17.252 2.724 3.517 4.627 7.697 5.399 12.252.069.395.128.793.179 1.193-10.794 4.29-27.947.263-38.306-7.923 8.737 11.388 30.495 18.014 43.306 12.923-.051-.4-.11-.798-.179-1.193z" fill="#7c3108"/></g><g><path d="m201.715 65.481c.448 0 .788.419.684.855-.385 1.621-1.843 2.827-3.582 2.827s-3.197-1.206-3.582-2.827c-.104-.436.236-.855.684-.855z" fill="#e59076"/></g></g><g><g><path d="m34.357 190.544c-.636 1.534-2.553 2.657-2.882 4.324-.32 1.618 1.182 3.455 1.182 5.167s-1.502 3.549-1.182 5.167c.33 1.667 2.427 2.79 3.063 4.325.647 1.561-.035 3.836.894 5.223.936 1.398 3.302 1.634 4.488 2.819 1.185 1.185 1.421 3.552 2.819 4.488 1.387.929 3.662.247 5.223.894 1.534.636 2.657 2.733 4.324 3.063 1.618.32 3.455-1.182 5.167-1.182s3.549 1.502 5.167 1.182c1.667-.33 2.79-2.427 4.324-3.063 1.561-.647 3.836.035 5.223-.894 1.398-.936 1.634-3.302 2.819-4.488 1.185-1.185 3.552-1.421 4.488-2.819.929-1.387.247-3.662.894-5.223.636-1.534 2.733-2.657 3.063-4.324.32-1.618-1.182-3.455-1.182-5.167s1.502-3.549 1.182-5.167c-.33-1.667-2.197-2.79-2.833-4.325z" fill="#6d2e03"/></g><g><path d="m57.454 223.56c-10.002 0-18.11-8.108-18.11-18.11v-9.401c0-10.002 8.108-18.11 18.11-18.11 10.002 0 18.11 8.108 18.11 18.11v9.401c-.001 10.002-8.109 18.11-18.11 18.11z" fill="#ffd2c0"/></g><g><path d="m39.344 196.049v4.833c7.057-4.711 11.572-12.749 11.543-21.561 0-.051 0-.103-.001-.154-6.755 2.63-11.542 9.197-11.542 16.882z" fill="#f2ad97"/></g><g><path d="m68.948 182.055c2.571 3.127 4.116 7.13 4.116 11.494v9.401c0 10.002-8.108 18.11-18.11 18.11-4.364 0-8.367-1.544-11.494-4.116 3.321 4.039 8.357 6.616 13.994 6.616 10.002 0 18.11-8.108 18.11-18.11v-9.401c-.001-5.637-2.577-10.673-6.616-13.994z" fill="#fcc4ae"/></g><g><path d="m39.344 205.45v-5.659c-3.222 0-5.833 2.612-5.833 5.833s2.612 5.833 5.833 5.833c.34 0 .67-.035.994-.091-.641-1.854-.994-3.844-.994-5.916z" fill="#ffd2c0"/></g><g><path d="m75.563 199.79v5.659c0 2.073-.353 4.062-.994 5.917.324.056.654.091.994.091 3.222 0 5.833-2.612 5.833-5.833s-2.611-5.834-5.833-5.834z" fill="#ffd2c0"/></g><g><path d="m79.158 201.029c.776.991 1.239 2.238 1.239 3.594 0 3.122-2.453 5.672-5.537 5.826-.089.309-.185.615-.29.917.324.056.654.091.994.091 3.222 0 5.833-2.612 5.833-5.833 0-1.866-.876-3.527-2.239-4.595z" fill="#fcc4ae"/></g><g><path d="m50.887 174.321c.031 9.616-5.347 18.309-13.535 22.765-1.732.943-3.858-.414-3.685-2.378.589-6.673 3.554-12.78 8.215-17.081 2.518-2.333 5.531-4.131 8.93-5.212.049.63.075 1.264.075 1.906z" fill="#6d2e03"/></g><g><path d="m79.769 195.5c-15.181 7.837-34.267-1.108-37.887-17.873 2.504-2.319 5.497-4.111 8.873-5.194 14.114-4.582 28.178 6.159 30.321 20.514.155 1.038-.375 2.071-1.307 2.553z" fill="#8c3f0a"/></g><g><path d="m81.076 192.948c-1.028-6.889-4.806-12.939-10.013-16.869 2.566 3.389 4.354 7.457 5.013 11.869.155 1.037-.375 2.071-1.307 2.552-9.439 4.873-20.386 3.255-28.188-2.695 7.47 9.798 21.486 13.736 33.188 7.695.932-.482 1.462-1.515 1.307-2.552z" fill="#7c3108"/></g><g><g><circle cx="49.749" cy="203.077" fill="#995222" r="2.194"/></g><g><circle cx="66.77" cy="203.077" fill="#995222" r="2.194"/></g></g><g><g><path d="m39.344 205.45v-3.178c-1.851 0-3.352 1.501-3.352 3.352s1.501 3.352 3.352 3.352c.118 0 .229-.023.344-.035-.221-1.13-.344-2.296-.344-3.491z" fill="#f2ad97"/></g><g><path d="m75.566 205.45v-3.178c1.851 0 3.352 1.501 3.352 3.352s-1.501 3.352-3.352 3.352c-.118 0-.229-.023-.344-.035.221-1.13.344-2.296.344-3.491z" fill="#f2ad97"/></g></g><g><g><g><path d="m56.05 213.07v-2.743c0-.333-.303-.585-.63-.524l-7.376 1.371c-.581.108-.581.94 0 1.048l7.376 1.371c.328.062.63-.19.63-.523z" fill="#7c3108"/></g><g><path d="m58.858 213.07v-2.743c0-.333.303-.585.63-.524l7.376 1.371c.581.108.581.94 0 1.048l-7.376 1.371c-.328.062-.63-.19-.63-.523z" fill="#7c3108"/></g></g></g></g><g><path d="m173.48 209.882c4.22 9.949 14.077 16.928 25.565 16.928s21.346-6.979 25.565-16.928c-.056-.251-.104-.517-.136-.81-.452-4.099 2.482-4.423 2.03-8.522-.452-4.1-3.415-3.776-3.867-7.876h-47.135c-.452 4.1-3.463 3.776-3.915 7.876-.452 4.099 2.482 4.423 2.03 8.522-.033.293-.081.558-.137.81z" fill="#6d2e03"/></g><g><g><path d="m199.045 223.487c-10.002 0-18.11-8.108-18.11-18.11v-9.401c0-10.002 8.108-18.11 18.11-18.11 10.002 0 18.11 8.108 18.11 18.11v9.401c0 10.002-8.108 18.11-18.11 18.11z" fill="#ffd2c0"/></g><g><path d="m180.935 195.977v4.833c7.057-4.711 11.572-12.749 11.543-21.561 0-.051 0-.103-.001-.154-6.755 2.63-11.542 9.196-11.542 16.882z" fill="#f2ad97"/></g><g><path d="m210.539 181.983c2.571 3.127 4.116 7.13 4.116 11.494v9.401c0 10.002-8.108 18.11-18.11 18.11-4.364 0-8.367-1.544-11.494-4.116 3.321 4.039 8.357 6.616 13.994 6.616 10.002 0 18.11-8.108 18.11-18.11v-9.401c0-5.638-2.577-10.673-6.616-13.994z" fill="#fcc4ae"/></g><g><path d="m180.936 205.377v-5.659c-3.222 0-5.833 2.612-5.833 5.833s2.612 5.833 5.833 5.833c.34 0 .67-.035.994-.091-.642-1.854-.994-3.843-.994-5.916z" fill="#ffd2c0"/></g><g><path d="m217.154 199.718v5.659c0 2.073-.353 4.062-.994 5.917.324.056.654.091.994.091 3.222 0 5.833-2.612 5.833-5.833s-2.611-5.834-5.833-5.834z" fill="#ffd2c0"/></g><g><path d="m220.749 200.957c.776.991 1.239 2.238 1.239 3.594 0 3.122-2.453 5.672-5.537 5.826-.089.309-.185.615-.29.917.324.056.654.091.994.091 3.222 0 5.833-2.612 5.833-5.833 0-1.866-.876-3.527-2.239-4.595z" fill="#fcc4ae"/></g><g><path d="m192.478 174.249c.031 9.616-5.347 18.309-13.535 22.765-1.732.943-3.858-.414-3.685-2.378.589-6.673 3.554-12.78 8.215-17.081 2.518-2.333 5.531-4.131 8.93-5.212.049.629.075 1.263.075 1.906z" fill="#6d2e03"/></g><g><path d="m221.36 195.427c-15.181 7.837-34.267-1.108-37.887-17.873 2.504-2.319 5.497-4.111 8.873-5.194 14.114-4.582 28.178 6.159 30.321 20.514.156 1.039-.374 2.072-1.307 2.553z" fill="#8c3f0a"/></g><g><path d="m222.668 192.875c-1.028-6.889-4.806-12.939-10.013-16.869 2.566 3.389 4.354 7.457 5.013 11.869.155 1.038-.375 2.071-1.307 2.552-9.439 4.873-20.386 3.255-28.188-2.695 7.47 9.798 21.486 13.736 33.188 7.695.932-.481 1.462-1.515 1.307-2.552z" fill="#7c3108"/></g><g><g><circle cx="191.34" cy="203.005" fill="#995222" r="2.194"/></g><g><circle cx="208.361" cy="203.005" fill="#995222" r="2.194"/></g></g><g><g><path d="m180.936 205.377v-3.178c-1.851 0-3.352 1.501-3.352 3.352s1.501 3.352 3.352 3.352c.118 0 .229-.023.344-.035-.222-1.13-.344-2.296-.344-3.491z" fill="#f2ad97"/></g><g><path d="m217.157 205.377v-3.178c1.851 0 3.352 1.501 3.352 3.352s-1.501 3.352-3.352 3.352c-.118 0-.229-.023-.344-.035.222-1.13.344-2.296.344-3.491z" fill="#f2ad97"/></g></g><g><path d="m202.012 212.089c.498 0 .876.465.76.95-.428 1.802-2.048 3.141-3.98 3.141s-3.552-1.34-3.98-3.141c-.115-.485.262-.95.76-.95z" fill="#e59076"/></g></g><g><g><path d="m75.065 55.325v9.4c0 7.05-4.03 13.16-9.915 16.155-.78.395-1.59.735-2.425 1.02-.68.225-1.38.415-2.09.56-1.19.245-2.42.375-3.68.375s-2.49-.13-3.68-.375c-.71-.145-1.41-.335-2.09-.56-.835-.285-1.645-.625-2.425-1.02-5.885-2.995-9.915-9.105-9.915-16.155v-9.4c0-10 8.11-18.11 18.11-18.11 5 0 9.53 2.025 12.805 5.305s5.305 7.805 5.305 12.805z" fill="#ffd2c0"/></g><g><path d="m38.845 55.325v4.833c7.057-4.711 11.572-12.749 11.543-21.561 0-.051 0-.103-.001-.154-6.755 2.63-11.542 9.196-11.542 16.882z" fill="#f2ad97"/></g><g><path d="m68.449 41.331c2.571 3.127 4.116 7.13 4.116 11.494v9.401c0 10.002-8.108 18.11-18.11 18.11-4.364 0-8.367-1.544-11.494-4.116 3.321 4.039 8.357 6.616 13.994 6.616 10.002 0 18.11-8.108 18.11-18.11v-9.401c-.001-5.638-2.577-10.673-6.616-13.994z" fill="#fcc4ae"/></g><g><path d="m38.845 64.725v-5.659c-3.222 0-5.833 2.612-5.833 5.833s2.612 5.833 5.833 5.833c.34 0 .67-.035.994-.091-.641-1.854-.994-3.843-.994-5.916z" fill="#ffd2c0"/></g><g><path d="m75.064 59.066v5.659c0 2.073-.353 4.062-.994 5.917.324.056.654.091.994.091 3.222 0 5.833-2.612 5.833-5.833s-2.611-5.834-5.833-5.834z" fill="#ffd2c0"/></g><g><path d="m78.659 60.305c.776.991 1.239 2.238 1.239 3.594 0 3.122-2.453 5.672-5.537 5.826-.089.309-.185.615-.29.917.324.056.654.091.994.091 3.222 0 5.833-2.612 5.833-5.833 0-1.866-.876-3.527-2.239-4.595z" fill="#fcc4ae"/></g><g><path d="m50.388 33.597c.031 9.616-5.347 18.309-13.535 22.765-1.732.943-3.858-.414-3.685-2.378.589-6.673 3.554-12.78 8.215-17.081 2.518-2.333 5.531-4.131 8.93-5.212.049.629.075 1.263.075 1.906z" fill="#7c3108"/></g><g><path d="m79.27 54.775c-15.181 7.837-34.267-1.108-37.887-17.873 2.504-2.319 5.497-4.111 8.873-5.194 14.114-4.582 28.178 6.159 30.321 20.514.155 1.039-.375 2.072-1.307 2.553z" fill="#8c3f0a"/></g><g><path d="m80.578 52.223c-1.028-6.888-4.806-12.939-10.013-16.869 2.566 3.389 4.354 7.457 5.013 11.869.155 1.038-.375 2.071-1.307 2.552-9.439 4.873-20.386 3.255-28.188-2.695 7.47 9.798 21.486 13.736 33.188 7.695.931-.481 1.461-1.515 1.307-2.552z" fill="#7c3108"/></g><g><g><circle cx="49.25" cy="62.353" fill="#995222" r="2.194"/></g><g><circle cx="66.271" cy="62.353" fill="#995222" r="2.194"/></g></g><g><g><path d="m38.845 64.725v-3.178c-1.851 0-3.352 1.501-3.352 3.352s1.501 3.352 3.352 3.352c.118 0 .229-.023.344-.035-.221-1.13-.344-2.295-.344-3.491z" fill="#f2ad97"/></g><g><path d="m75.067 64.725v-3.178c1.851 0 3.352 1.501 3.352 3.352s-1.501 3.352-3.352 3.352c-.118 0-.229-.023-.344-.035.221-1.13.344-2.295.344-3.491z" fill="#f2ad97"/></g></g><g><path d="m60.635 82.46c-1.19.245-2.42.375-3.68.375s-2.49-.13-3.68-.375l1.83-3.66c.76-1.525 2.94-1.525 3.7 0z" fill="#8c3f0a"/></g><g><path d="m65.15 75.16v5.72c-.78.395-1.59.735-2.425 1.02v-6.74c0-.98-.795-1.775-1.775-1.775h-7.99c-.98 0-1.775.795-1.775 1.775v6.74c-.835-.285-1.645-.625-2.425-1.02v-5.72c0-2.315 1.885-4.195 4.2-4.195h7.99c2.315 0 4.2 1.88 4.2 4.195z" fill="#8c3f0a"/></g></g><g><g><g><path d="m128 86.519c-22.909 0-41.481 18.572-41.481 41.481s18.571 41.481 41.481 41.481 41.481-18.572 41.481-41.481-18.572-41.481-41.481-41.481zm0 59.651c-10.035 0-18.17-8.135-18.17-18.17s8.135-18.17 18.17-18.17 18.17 8.135 18.17 18.17-8.135 18.17-18.17 18.17z" fill="#e63950"/></g><g><g><path d="m151.896 94.104c4.772 6.757 7.585 14.996 7.585 23.896 0 22.909-18.572 41.481-41.481 41.481-8.901 0-17.14-2.813-23.896-7.585 7.51 10.634 19.888 17.585 33.896 17.585 22.909 0 41.481-18.572 41.481-41.481 0-14.009-6.951-26.386-17.585-33.896z" fill="#d10028"/></g></g><g><g><path d="m154.72 96.28c6.087 7.219 9.761 16.538 9.761 26.72 0 22.909-18.572 41.481-41.481 41.481-10.182 0-19.501-3.674-26.72-9.761 7.609 9.024 18.992 14.761 31.72 14.761 22.909 0 41.481-18.572 41.481-41.481 0-12.728-5.737-24.11-14.761-31.72z" fill="#b7022d"/></g></g><g><g><path d="m168.404 118.567 10.085-8.897c1.518-1.34 1.883-3.564.87-5.318l-5.364-9.291c-1.012-1.753-3.121-2.55-5.04-1.905l-12.861 4.324c6.017 5.543 10.392 12.843 12.31 21.087z" fill="#b7022d"/></g><g><path d="m77.511 109.67 10.085 8.897c1.917-8.244 6.292-15.544 12.311-21.087l-12.861-4.324c-1.919-.645-4.028.152-5.04 1.905l-5.364 9.291c-1.013 1.755-.649 3.979.869 5.318z" fill="#d10028"/></g><g><path d="m128 86.519c4.226 0 8.304.632 12.146 1.807l-2.612-12.931c-.401-1.985-2.145-3.412-4.17-3.412h-10.728c-2.025 0-3.77 1.427-4.17 3.412l-2.612 12.931c3.842-1.175 7.92-1.807 12.146-1.807z" fill="#d10028"/></g><g><path d="m178.161 145.762-9.704-8.561c-1.851 8.173-6.115 15.43-12.003 20.983l12.173 4.092c1.919.645 4.028-.152 5.04-1.906l5.364-9.291c1.012-1.753.648-3.977-.87-5.317z" fill="#b7022d"/></g><g><path d="m128 169.481c-4.226 0-8.304-.632-12.146-1.807l2.612 12.931c.401 1.985 2.145 3.412 4.17 3.412h10.728c2.025 0 3.77-1.427 4.17-3.412l2.612-12.931c-3.842 1.175-7.92 1.807-12.146 1.807z" fill="#b7022d"/></g><g><path d="m87.543 137.201-9.704 8.561c-1.518 1.34-1.883 3.564-.87 5.318l5.364 9.291c1.012 1.754 3.121 2.551 5.04 1.906l12.173-4.092c-5.888-5.555-10.152-12.811-12.003-20.984z" fill="#d10028"/></g></g></g><g><path d="m92.52 130c-1.1 0-2-.9-2-2v-.01c.01-1.1.9-1.99 2-1.99s2 .9 2 2-.9 2-2 2zm.89-7.93c-.15 0-.3-.02-.44-.05-1.08-.25-1.75-1.32-1.51-2.4 2.39-10.41 9.16-19.34 18.57-24.51 2.47-1.35 5.1-2.43 7.81-3.19 1.04-.29 2.17.35 2.47 1.38.29 1.06-.33 2.17-1.39 2.47-2.41.68-4.76 1.64-6.96 2.85-8.42 4.61-14.47 12.6-16.6 21.9-.21.91-1.01 1.55-1.95 1.55z" fill="#e8566f"/></g></g></g></svg>