<svg id="Capa_1" enable-background="new 0 0 510 510" height="512" viewBox="0 0 510 510" width="512" xmlns="http://www.w3.org/2000/svg"><g id="XMLID_1756_"><path id="XMLID_2051_" d="m30 45v330l105 45 120-15 15-195-15-165c-15.192 0-209.806 0-225 0z" fill="#516992"/><path id="XMLID_2048_" d="m480 45c-15.192 0-209.806 0-225 0v360l120 15 105-45c0-18.326 0-311.674 0-330z" fill="#344f79"/><path id="XMLID_2043_" d="m60 75v300l151.875 45 43.125-13.125 15-165.938-15-165.937c-10.822 0-184.178 0-195 0z" fill="#344f79"/><path id="XMLID_2034_" d="m345 420 105-45c0-16.651 0-283.349 0-300-10.822 0-184.178 0-195 0v331.875z" fill="#1e3860"/><path id="XMLID_2028_" d="m191.25 406.875c-5.574-11.148-10.363-20.727-15.938-31.875-16.942 0-156.031 0-175.312 0v23.771c0 36.576 29.651 66.229 66.229 66.229h188.771l15-29.062-15-29.062c-9.728-.001-53.748-.001-63.75-.001z" fill="#1e3860"/><path id="XMLID_2027_" d="m510 398.771c0-8.314 0-15.457 0-23.771-20.271 0-148.825 0-175.313 0-5.574 11.148-10.363 20.727-15.937 31.875-9.728 0-53.748 0-63.75 0v58.125h188.77c36.577 0 66.23-29.651 66.23-66.229z" fill="#092142"/><path id="XMLID_1950_" d="m195 285-30 15-30-15c0-10.889 0-79.04 0-90h60l15 45z" fill="#ffea94"/><path id="XMLID_1949_" d="m255 285-30 15-30-15c0-14.518 0-105.386 0-120h60l15 60z" fill="#ffd92e"/><path id="XMLID_2026_" d="m315 135c-7.259 0-52.693 0-60 0v150l30 15 30-15 15-75z" fill="#fcbe00"/><path id="XMLID_2025_" d="m315 285 30 15 30-15c0-10 0-170 0-180-7.259 0-52.693 0-60 0z" fill="#ff9000"/><path id="XMLID_2023_" d="m105 285v30h150l15-15-15-15c-10.128 0-139.871 0-150 0z" fill="#a8baff"/><path id="XMLID_1755_" d="m405 285c-10.128 0-139.871 0-150 0v30h150c0-10.492 0-19.508 0-30z" fill="#7995ff"/></g></svg>