<svg id="Capa_1" enable-background="new 0 0 502 502" height="512" viewBox="0 0 502 502" width="512" xmlns="http://www.w3.org/2000/svg" xmlns:xlink="http://www.w3.org/1999/xlink"><linearGradient id="SVGID_1_" gradientUnits="userSpaceOnUse" x1="138.359" x2="138.359" y1="209.325" y2="127.908"><stop offset="0" stop-color="#64cd89"/><stop offset=".2218" stop-color="#66cf8e"/><stop offset=".5016" stop-color="#6dd39e"/><stop offset=".8113" stop-color="#77dbb8"/><stop offset="1" stop-color="#7fe1cb"/></linearGradient><linearGradient id="SVGID_2_" gradientUnits="userSpaceOnUse" x1="269.715" x2="269.715" y1="210.555" y2="121.164"><stop offset="0" stop-color="#8b71c7"/><stop offset="1" stop-color="#a891d9"/></linearGradient><linearGradient id="SVGID_3_" gradientUnits="userSpaceOnUse" x1="258.125" x2="258.125" y1="208.022" y2="450.432"><stop offset="0" stop-color="#ec6476"/><stop offset="1" stop-color="#ec909c"/></linearGradient><linearGradient id="lg1"><stop offset="0" stop-color="#f4d84a"/><stop offset="1" stop-color="#f9ea9d"/></linearGradient><linearGradient id="SVGID_4_" gradientUnits="userSpaceOnUse" x1="131.125" x2="-21.027" xlink:href="#lg1" y1="307.014" y2="307.014"/><linearGradient id="SVGID_5_" gradientUnits="userSpaceOnUse" x1="401.077" x2="401.077" xlink:href="#lg1" y1="301.735" y2="78.053"/><g><path d="m185.406 290.448h-94.095c-18.198 0-32.951-14.753-32.951-32.951v-94.095c0-18.198 14.753-32.951 32.951-32.951h94.095c18.198 0 32.951 14.753 32.951 32.951v94.095c0 18.199-14.752 32.951-32.951 32.951z" fill="url(#SVGID_1_)"/><circle cx="269.715" cy="171.496" fill="url(#SVGID_2_)" r="84.003"/><path d="m372.039 414.507h-271.588l-26.295-107.493 64.202-107.493h254.084c30.862 0 54.242 27.864 48.883 58.257l-20.403 115.712c-4.183 23.722-24.794 41.017-48.883 41.017z" fill="url(#SVGID_3_)"/><path d="m428.493 290.485-18.933-14.045c-5.038-3.737-11.928-3.737-16.966 0l-18.933 14.045c-8.639 6.408-20.991 1.292-22.568-9.348l-3.456-23.319c-.92-6.205-5.792-11.077-11.997-11.997l-23.319-3.456c-6.747-1-11.272-6.333-12.045-12.303-.764-5.896-4.317-11.056-9.781-13.4-12.778-5.483-26.896 5.088-24.812 18.836 3.064 20.22 18.58 38.091 41.507 41.489l8.084 1.198 1.198 8.085c3.611 24.357 24.115 42.035 48.756 42.034 10.598 0 20.725-3.357 29.287-9.708l6.563-4.869 6.563 4.869c6.398 4.746 13.671 7.819 21.362 9.069l6.082-34.49c-2.278-.303-4.54-1.167-6.592-2.69z" fill="#e05467"/><path d="m138.359 199.52h-68.305c-24.089 0-44.7 17.295-48.883 41.018l-20.403 115.712c-5.359 30.393 18.022 58.257 48.883 58.257h50.8z" fill="url(#SVGID_4_)"/><path d="m409.56 108.32 18.933-14.045c8.639-6.408 20.991-1.292 22.568 9.348l3.457 23.319c.92 6.205 5.792 11.077 11.997 11.997l23.319 3.456c10.64 1.577 15.756 13.929 9.348 22.568l-14.045 18.933c-3.737 5.038-3.737 11.928 0 16.966l14.045 18.933c6.408 8.639 1.292 20.991-9.348 22.568l-23.319 3.456c-6.205.92-11.077 5.792-11.997 11.997l-3.457 23.319c-1.577 10.64-13.929 15.757-22.568 9.348l-18.933-14.045c-5.038-3.737-11.928-3.737-16.967 0l-18.933 14.045c-8.639 6.408-20.991 1.292-22.568-9.348l-3.457-23.319c-.92-6.205-5.792-11.077-11.997-11.997l-23.319-3.456c-10.64-1.577-15.757-13.929-9.348-22.568l14.045-18.933c3.737-5.038 3.737-11.928 0-16.966l-14.045-18.933c-6.408-8.639-1.292-20.991 9.348-22.568l23.319-3.456c6.205-.92 11.077-5.792 11.997-11.997l3.457-23.319c1.577-10.64 13.929-15.756 22.568-9.348l18.933 14.045c5.039 3.737 11.929 3.737 16.967 0z" fill="url(#SVGID_5_)"/><path d="m428.659 203.88h-55.165c-6.352 0-11.5-5.149-11.5-11.5s5.148-11.5 11.5-11.5h55.165c6.352 0 11.5 5.149 11.5 11.5s-5.148 11.5-11.5 11.5z" fill="#efc42f"/><g><ellipse cx="178.153" cy="370.864" fill="#efb1d2" rx="14.936" ry="12.003"/><ellipse cx="353.924" cy="370.864" fill="#efb1d2" rx="14.936" ry="12.003"/><path d="m203.76 345.212c7.183 0 13.813 1.589 19.159 4.273 4.544 2.281 9.962-.802 10.365-5.87.113-1.423.126-2.875.029-4.348-.991-15.146-13.602-27.24-28.775-27.629-16.713-.428-30.396 12.992-30.396 29.608 0 .843.035 1.678.105 2.503.422 5.01 5.857 7.995 10.349 5.738 5.347-2.685 11.979-4.275 19.164-4.275z" fill="#fff"/><path d="m266.039 381.05c-6.447 0-12.894-2.155-18.274-6.465-4.989-3.997-5.794-11.282-1.797-16.271 3.997-4.99 11.282-5.793 16.271-1.797 2.237 1.792 5.361 1.792 7.598 0 4.988-3.997 12.273-3.193 16.271 1.797 3.997 4.989 3.193 12.274-1.797 16.271-5.378 4.311-11.825 6.465-18.272 6.465z" fill="#353544"/><path d="m203.76 345.212c5.926 0 11.473 1.082 16.237 2.967.911-2.129 1.415-4.47 1.415-6.933 0-9.749-7.903-17.652-17.652-17.652s-17.652 7.903-17.652 17.652c0 2.463.504 4.803 1.415 6.933 4.764-1.885 10.311-2.967 16.237-2.967z" fill="#353544"/><path d="m328.318 345.212c7.183 0 13.813 1.589 19.159 4.273 4.544 2.281 9.962-.802 10.365-5.87.113-1.423.125-2.875.029-4.348-.991-15.146-13.602-27.24-28.775-27.629-16.713-.428-30.396 12.992-30.396 29.608 0 .843.035 1.678.105 2.503.422 5.01 5.856 7.995 10.349 5.738 5.347-2.685 11.978-4.275 19.164-4.275z" fill="#fff"/><path d="m328.318 345.212c5.926 0 11.473 1.082 16.237 2.967.911-2.129 1.415-4.47 1.415-6.933 0-9.749-7.903-17.652-17.652-17.652s-17.652 7.903-17.652 17.652c0 2.463.504 4.803 1.415 6.933 4.763-1.885 10.311-2.967 16.237-2.967z" fill="#353544"/></g><path d="m248.566 268.737h-62.855c-6.352 0-11.5-5.149-11.5-11.5s5.148-11.5 11.5-11.5h62.855c6.352 0 11.5 5.149 11.5 11.5s-5.148 11.5-11.5 11.5z" fill="#e05467"/><g fill="#fffbcc"><path d="m58.607 251.776c-.577 0-1.161-.05-1.748-.153-5.439-.959-9.071-6.146-8.111-11.585l1.742-9.879c.959-5.439 6.157-9.067 11.584-8.111 5.439.959 9.071 6.146 8.111 11.585l-1.742 9.879c-.855 4.851-5.074 8.264-9.836 8.264z"/><path d="m45.37 326.85c-.577 0-1.161-.05-1.748-.153-5.44-.959-9.071-6.146-8.111-11.585l5.972-33.866c.96-5.439 6.154-9.069 11.584-8.112 5.439.959 9.071 6.146 8.111 11.584l-5.972 33.866c-.855 4.852-5.074 8.266-9.836 8.266z"/></g></g></svg>