<svg xmlns="http://www.w3.org/2000/svg" xmlns:xlink="http://www.w3.org/1999/xlink" viewBox="0 0 672.89 376.48"><defs><style>.cls-1,.cls-10,.cls-11,.cls-12,.cls-14,.cls-15,.cls-20,.cls-24,.cls-25,.cls-27,.cls-3,.cls-33,.cls-4,.cls-41,.cls-46,.cls-5,.cls-50,.cls-54,.cls-55,.cls-58,.cls-6,.cls-8{fill:none;}.cls-2,.cls-34,.cls-39,.cls-40,.cls-52{fill:#672ed6;}.cls-3,.cls-4{stroke:#672ed6;}.cls-10,.cls-11,.cls-12,.cls-14,.cls-15,.cls-19,.cls-20,.cls-21,.cls-22,.cls-23,.cls-24,.cls-25,.cls-27,.cls-28,.cls-29,.cls-3,.cls-31,.cls-33,.cls-34,.cls-39,.cls-40,.cls-41,.cls-42,.cls-45,.cls-46,.cls-48,.cls-49,.cls-50,.cls-51,.cls-52,.cls-54,.cls-55,.cls-57,.cls-8{stroke-miterlimit:10;}.cls-4,.cls-5,.cls-6{stroke-linecap:round;stroke-linejoin:round;stroke-width:0.75px;}.cls-5,.cls-54,.cls-55{stroke:#db7294;}.cls-12,.cls-6{stroke:#eeda36;}.cls-7{fill:#d96980;}.cls-8{stroke:#fff;}.cls-48,.cls-9{fill:#e4b0c8;}.cls-10{stroke:#d96980;}.cls-11{stroke:#9e88e5;}.cls-13,.cls-22,.cls-23,.cls-45{fill:#eeda36;}.cls-14{stroke:#d7d4fc;}.cls-15{stroke:#c1c0ff;stroke-dasharray:4;}.cls-16{fill:#b4aaf9;}.cls-17,.cls-19,.cls-21,.cls-42,.cls-51{fill:#fff;}.cls-18{clip-path:url(#clip-path);}.cls-19,.cls-22,.cls-27,.cls-28,.cls-33,.cls-39,.cls-40,.cls-41,.cls-42,.cls-45,.cls-46,.cls-52,.cls-57,.cls-58{stroke:#000;}.cls-20,.cls-21,.cls-23,.cls-29{stroke:#1c191b;}.cls-24{stroke:#020202;}.cls-25,.cls-31{stroke:#0c0c0c;}.cls-26,.cls-28,.cls-49{fill:#db7294;}.cls-30{fill:#0c0c0c;}.cls-31,.cls-43{fill:#fff7f7;}.cls-32{clip-path:url(#clip-path-2);}.cls-33{stroke-width:2px;}.cls-34{stroke:#211f21;}.cls-35{fill:#141414;}.cls-36{fill:#f7f6f6;}.cls-37{fill:#090909;}.cls-38{clip-path:url(#clip-path-3);}.cls-39{stroke-width:0.91px;}.cls-40{stroke-width:0.97px;}.cls-41{stroke-width:1.88px;}.cls-42,.cls-45,.cls-46{stroke-width:0.94px;}.cls-44{fill:#020202;}.cls-47{clip-path:url(#clip-path-4);}.cls-48,.cls-49,.cls-50,.cls-51{stroke:#020106;}.cls-53{fill:#9e88e5;}.cls-55{stroke-dasharray:3.85 3.85;}.cls-56{clip-path:url(#clip-path-5);}.cls-57{fill:#fefeff;}.cls-58{font-size:32.17px;font-family:Montserrat-ExtraBold, Montserrat ExtraBold;font-weight:800;}</style><clipPath id="clip-path"><rect class="cls-1" x="85.64" y="233.6" width="127.57" height="77.21" rx="9.35"/></clipPath><clipPath id="clip-path-2"><rect class="cls-1" x="49.93" y="74.62" width="107.28" height="64.93" rx="7.86"/></clipPath><clipPath id="clip-path-3"><rect class="cls-1" x="257.02" y="220.02" width="108.28" height="65.54" rx="7.93"/></clipPath><clipPath id="clip-path-4"><rect class="cls-1" x="407.96" y="265.5" width="127.57" height="77.21" rx="9.35"/></clipPath><clipPath id="clip-path-5"><path class="cls-1" d="M616.48,164.22H477.05c-3.45,0,3.93-23.61,3.93-27.06l26.53-74.51c0-3.45,47.77,2,51.22,2l57.75-35a6.24,6.24,0,0,1,6.24,6.25V158A6.24,6.24,0,0,1,616.48,164.22Z"/></clipPath></defs><title>svg</title><g id="Layer_2" data-name="Layer 2"><g id="OBJECTS"><g id="cat3"><path class="cls-2" d="M253.71,363.79l2.9,2.9a8.26,8.26,0,0,1,11.68,0l2.91-2.9a12.37,12.37,0,0,0-17.49,0Z"/><path class="cls-2" d="M248.89,359l2.91,2.91a15.05,15.05,0,0,1,21.31,0L276,359a19.18,19.18,0,0,0-27.13,0Z"/><path class="cls-2" d="M262.45,346.54a25.82,25.82,0,0,0-18.38,7.61l2.91,2.91a21.88,21.88,0,0,1,31,0l2.9-2.91A25.79,25.79,0,0,0,262.45,346.54Z"/><path class="cls-2" d="M262.45,366.69A3.51,3.51,0,1,0,266,370.2,3.51,3.51,0,0,0,262.45,366.69Z"/><path class="cls-3" d="M320.53,92.3l2.91,2.9a8.26,8.26,0,0,1,11.68,0l2.9-2.9a12.35,12.35,0,0,0-17.49,0Z"/><path class="cls-3" d="M315.72,87.48l2.9,2.9a15.09,15.09,0,0,1,21.32,0l2.9-2.9a19.17,19.17,0,0,0-27.12,0Z"/><path class="cls-3" d="M329.28,75.05a25.81,25.81,0,0,0-18.38,7.61l2.9,2.9a21.88,21.88,0,0,1,30.95,0l2.91-2.9A25.82,25.82,0,0,0,329.28,75.05Z"/><circle class="cls-3" cx="329.28" cy="98.71" r="3.51"/><line class="cls-4" x1="381.51" y1="213.44" x2="381.51" y2="222.44"/><line class="cls-4" x1="377.02" y1="217.94" x2="386.01" y2="217.94"/><line class="cls-5" x1="57.5" y1="299.96" x2="57.5" y2="308.96"/><line class="cls-5" x1="53" y1="304.46" x2="61.99" y2="304.46"/><line class="cls-5" x1="133.6" y1="358.93" x2="133.6" y2="367.93"/><line class="cls-5" x1="129.1" y1="363.43" x2="138.1" y2="363.43"/><line class="cls-5" x1="656.12" y1="287.18" x2="656.12" y2="296.18"/><line class="cls-5" x1="651.63" y1="291.68" x2="660.62" y2="291.68"/><line class="cls-5" x1="250.87" y1="87.44" x2="250.87" y2="96.43"/><line class="cls-5" x1="246.38" y1="91.94" x2="255.37" y2="91.94"/><line class="cls-4" x1="65.91" y1="52.5" x2="65.91" y2="61.49"/><line class="cls-4" x1="61.41" y1="56.99" x2="70.4" y2="56.99"/><line class="cls-6" x1="112.21" y1="205.74" x2="112.21" y2="214.74"/><line class="cls-6" x1="107.71" y1="210.24" x2="116.71" y2="210.24"/><line class="cls-6" x1="293.22" y1="320.52" x2="293.22" y2="329.51"/><line class="cls-6" x1="288.72" y1="325.01" x2="297.71" y2="325.01"/><circle class="cls-6" cx="210.11" cy="90.36" r="3.09"/><circle class="cls-7" cx="612.05" cy="300.99" r="19.86" transform="translate(-68.11 351.82) rotate(-30.46)"/><rect class="cls-8" x="600.7" y="292.6" width="23.29" height="17.5"/><polyline class="cls-8" points="600.7 292.6 612.34 303.36 623.99 292.6"/><circle class="cls-9" cx="53" cy="347.52" r="16.45" transform="translate(-294.97 297.54) rotate(-73.15)"/><rect class="cls-8" x="43.6" y="340.57" width="19.29" height="14.49"/><polyline class="cls-8" points="43.6 340.57 53.24 349.48 62.89 340.57"/><circle class="cls-9" cx="234.98" cy="63.97" r="10.46"/><rect class="cls-8" x="229" y="59.55" width="12.26" height="9.21"/><polyline class="cls-8" points="229 59.55 235.13 65.22 241.26 59.55"/><polygon class="cls-7" points="133.6 173.38 136.42 178.27 139.25 183.16 133.6 183.16 127.95 183.16 130.78 178.27 133.6 173.38"/><polygon class="cls-10" points="377.42 316.6 383.86 322.26 390.31 327.92 382.19 330.67 374.06 333.43 375.74 325.01 377.42 316.6"/><polygon class="cls-10" points="17.55 52.71 15.3 60.99 13.06 69.27 7.01 63.18 0.96 57.1 9.26 54.9 17.55 52.71"/><polygon class="cls-11" points="656.11 334.74 654.16 341.92 652.22 349.1 646.97 343.82 641.73 338.54 648.92 336.64 656.11 334.74"/><path class="cls-10" d="M197.8,341.92a4.62,4.62,0,1,1-4.62-4.63A4.62,4.62,0,0,1,197.8,341.92Z"/><path class="cls-10" d="M363.57,41.78a6.52,6.52,0,1,1-6.52-6.52A6.52,6.52,0,0,1,363.57,41.78Z"/><path class="cls-7" d="M234.37,217.42a4.15,4.15,0,1,1-4.15-4.14A4.14,4.14,0,0,1,234.37,217.42Z"/><path class="cls-7" d="M367.72,362.87a4.15,4.15,0,1,1-4.15-4.15A4.14,4.14,0,0,1,367.72,362.87Z"/><path class="cls-9" d="M243.16,301.69a2.47,2.47,0,1,1-2.47-2.47A2.46,2.46,0,0,1,243.16,301.69Z"/><circle class="cls-10" cx="563.91" cy="362.87" r="7.33" transform="translate(-96.16 244.65) rotate(-22.61)"/><circle class="cls-3" cx="445.9" cy="232.69" r="6.43"/><circle class="cls-3" cx="20.99" cy="277.99" r="5.79"/><path class="cls-2" d="M632.41,228.8a5,5,0,1,1-5-5A5,5,0,0,1,632.41,228.8Z"/><path class="cls-3" d="M340,348.35a5,5,0,1,1-5-5A5,5,0,0,1,340,348.35Z"/><path class="cls-12" d="M574.41,329s8.3-.82,10.47,4.42,3,10.32,16.08,3.87"/><path class="cls-12" d="M28.11,109.31s-1.1,7.6-6.26,8.39-9.89.44-7,13.51"/><path class="cls-12" d="M280.83,44.29s8.3-.81,10.47,4.43,3.05,10.32,16.08,3.87"/><path class="cls-13" d="M320.88,162.68a3.75,3.75,0,1,1-3.74-3.74A3.74,3.74,0,0,1,320.88,162.68Z"/><circle class="cls-14" cx="119.12" cy="43.56" r="4.71" transform="translate(-1.89 81.55) rotate(-37.51)"/><path class="cls-15" d="M85.64,274.76c-47,0-85.1-36.15-85.1-80.76,0-31.52,19-58.83,46.79-72.13"/><path class="cls-15" d="M269.43,293.47c3.45,31.58-20.3,60.08-53.06,63.67S154.25,338,150.79,306.45"/><ellipse class="cls-15" cx="337.88" cy="82.84" rx="57.99" ry="56.71"/><ellipse class="cls-15" cx="160.38" cy="159.76" rx="55.33" ry="54.1"/><ellipse class="cls-15" cx="413.81" cy="238.72" rx="54.25" ry="50.14"/></g><g id="cat2"><rect class="cls-16" x="75.9" y="227.71" width="147.03" height="101.29" rx="9.35"/><rect class="cls-17" x="85.64" y="233.6" width="127.57" height="77.21" rx="9.35"/><path d="M123.76,268.88s-6.93,21.82,7.22,26.63,15.74.83,18.88,8.36,15.74,4.29,16.95-7.3-7.35-10.69-11.81-11.29-7.42-8.78-7.37-13S125.36,260,123.76,268.88Z"/><g class="cls-18"><path class="cls-19" d="M139.45,289.34s15.08.92,30.64,15.54,15.15,52.35,15.15,52.35L138.79,356Z"/><path class="cls-17" d="M155.39,301.83c10.41,7.79,31.59,54,24.86,54.19s-87-.48-89.53-3,8.41-24.54,8.41-24.54,16.89-34.7,43-34.92C150.89,293.51,144.27,293.52,155.39,301.83Z"/><path class="cls-20" d="M112.73,330.28s-7.36,20.62-5.66,23,55.75,2.93,60.27,2.78-3.14-32.65-7-42"/><path class="cls-21" d="M141,341.07s6.06-4.05,21.73-.2c0,0,3,1.37.71,2s-8.15-.32-8.15-.32,9,.82,9.23,2.39S156,345,156,345s9.39,1.47,9.27,3.07-5.33-.19-10.4.18-14.3,4.08-15.73,3S134.6,343.46,141,341.07Z"/><path class="cls-19" d="M135.93,289.35c-9.36.08-19.62,3-29.56,11.09C92.81,311.5,69.8,346.28,79.84,364.23s33.19,10.95,41.21,7.33,23.69-15.63,25.4-20.54c2-5.76,1.13-9.82-6.1-11.63s-33.75,1-38.94,4.4"/><path class="cls-22" d="M146.45,351c2-5.63,1.15-9.63-5.63-11.5a20.72,20.72,0,0,0-.19,6.27c.45,3.84,1.76,7.1,3.36,8.82A12.46,12.46,0,0,0,146.45,351Z"/><path class="cls-23" d="M124.69,317.25s-7.91-5.79-4.87-8.46,5.68,2.84,5.68,2.84,1.83-4.83,4.45-3.22S124.69,317.25,124.69,317.25Z"/></g><path class="cls-23" d="M144.42,292.54c0,2.73-3.8,4.95-8.49,4.95s-8.49-2.22-8.49-4.95,3.8-4.94,8.49-4.94S144.42,289.81,144.42,292.54Z"/><path class="cls-19" d="M120.12,268.88a6.31,6.31,0,1,0,6.31-6.25A6.29,6.29,0,0,0,120.12,268.88Z"/><path class="cls-19" d="M146.37,250.6h-7.46c-5,0-9,4.62-9,10.27v11.57c0,.32,0,.64,0,1a4.66,4.66,0,0,0-.13,1.06v14.48a4.66,4.66,0,0,0,4.65,4.64h3a4.66,4.66,0,0,0,4.64-4.64V282.7h4.32c5,0,9-4.62,9-10.26V260.87C155.39,255.22,151.33,250.6,146.37,250.6Z"/><path d="M129.26,266.07s7.31-2.43,9.53-7.15,1.67-5.74,1.67-5.74,4.12,5.65,10.64,7c5.38,1.14,5.16.35,5.69-.91s.81-9.11-7.36-14-17-4.42-23,1.69-5.32,15.73-3.28,18.14S127.87,268.87,129.26,266.07Z"/><circle cx="126.43" cy="236.1" r="7.3" transform="translate(-132.4 304.9) rotate(-76.72)"/><path class="cls-17" d="M120.49,268.88a5.94,5.94,0,1,0,5.94-5.89A5.92,5.92,0,0,0,120.49,268.88Z"/><path class="cls-24" d="M129.64,269.66s.26-4-3.85-3.56"/><circle cx="142.14" cy="264.65" r="1.68"/><path d="M151.47,264.4A1.44,1.44,0,1,0,152.9,263,1.44,1.44,0,0,0,151.47,264.4Z"/><path class="cls-25" d="M149.86,271.28s-.84,2.47-2.63,2.64-3.19-1.82-3.29-3.36"/><path class="cls-9" d="M134.61,270.83a4.18,4.18,0,1,0,4.18-4.18A4.18,4.18,0,0,0,134.61,270.83Z"/><path class="cls-9" d="M154.27,268a2.92,2.92,0,0,1,.73.09v4.34a9,9,0,0,1-.15,1.88,3.79,3.79,0,0,1-.58.05,3.18,3.18,0,1,1,0-6.36Z"/><polygon class="cls-26" points="147.97 262.97 147.63 268.69 150.36 267.03 147.97 262.97"/><path class="cls-27" d="M201.61,250.6H171.54a5.41,5.41,0,0,1-5.41-5.41h0a5.41,5.41,0,0,1,5.41-5.4h30.07a5.41,5.41,0,0,1,5.41,5.4h0A5.41,5.41,0,0,1,201.61,250.6Z"/><rect class="cls-27" x="85.64" y="233.6" width="127.57" height="77.21" rx="9.35"/><path d="M153,319.63a3.38,3.38,0,1,1-2.78-3.34,3.41,3.41,0,0,1,2.78,3.34.63.63,0,0,0,1.25,0,4.64,4.64,0,1,0-3.75,4.55,4.69,4.69,0,0,0,3.75-4.55A.63.63,0,0,0,153,319.63Z"/></g><g id="cat2-2" data-name="cat2"><rect class="cls-16" x="182.25" y="107.3" width="123.65" height="85.18" rx="7.86"/><rect class="cls-19" x="190.43" y="112.26" width="107.28" height="64.93" rx="7.86"/><path class="cls-28" d="M218.61,177.19h49.74c-5-6.8-14.27-11.36-24.87-11.36S223.63,170.39,218.61,177.19Z"/><ellipse class="cls-29" cx="244.11" cy="167.18" rx="8.15" ry="4.75"/><path class="cls-19" d="M228.93,144.45a6.06,6.06,0,1,0,6-6A6,6,0,0,0,228.93,144.45Z"/><path class="cls-19" d="M254.14,126.89H247c-4.76,0-8.66,4.44-8.66,9.86v11.11c0,.31,0,.62,0,.93a4.31,4.31,0,0,0-.12,1v13.9a4.47,4.47,0,0,0,4.46,4.46h2.84a4.47,4.47,0,0,0,4.46-4.46v-6h4.15c4.76,0,8.66-4.44,8.66-9.87V136.75C262.8,131.33,258.9,126.89,254.14,126.89Z"/><path d="M237.7,141.75s7-2.34,9.16-6.87,1.6-5.51,1.6-5.51,4,5.42,10.22,6.75c5.17,1.1,5,.34,5.47-.86s.78-8.76-7.07-13.47-16.28-4.24-22.1,1.62-5.1,15.11-3.15,17.42S236.37,144.44,237.7,141.75Z"/><path class="cls-27" d="M216.47,114.86s-3,.43-3.47,5.2-3.47,10.56-10.12,12-22.55,1.31-23.28-15S197.24,97.14,203,103c4.1,4.15,5.35,4.49,7.81-.28s10.46-8.81,18.1-1.81,2.14,14.82-1.62,16S219.06,112.76,216.47,114.86Z"/><circle class="cls-28" cx="235.37" cy="117.3" r="3.08"/><path class="cls-17" d="M229.28,144.45a5.71,5.71,0,1,0,5.7-5.66A5.68,5.68,0,0,0,229.28,144.45Z"/><path class="cls-24" d="M238.07,145.2s.25-3.85-3.7-3.42"/><path class="cls-30" d="M248.46,140.38a1.62,1.62,0,1,0,1.61-1.61A1.62,1.62,0,0,0,248.46,140.38Z"/><path class="cls-30" d="M259,140.15a1.38,1.38,0,1,0,1.37-1.38A1.37,1.37,0,0,0,259,140.15Z"/><path class="cls-31" d="M257.49,146.76s-.81,2.36-2.53,2.52-3.06-1.74-3.15-3.22Z"/><path class="cls-9" d="M242.84,146.32a4,4,0,1,0,4-4A4,4,0,0,0,242.84,146.32Z"/><path class="cls-9" d="M261.72,143.6a2.76,2.76,0,0,1,.71.09v4.16a8.3,8.3,0,0,1-.15,1.81,3.33,3.33,0,0,1-.56.05,3.06,3.06,0,0,1,0-6.11Z"/><polygon class="cls-26" points="255.68 138.77 255.35 144.27 257.97 142.67 255.68 138.77"/><path d="M247,184.61a2.75,2.75,0,0,1-1.78,2.57,2.75,2.75,0,1,1,1.78-2.57.63.63,0,0,0,1.25,0,4,4,0,1,0-3.23,3.92,4,4,0,0,0,3.23-3.92A.63.63,0,0,0,247,184.61Z"/></g><g id="cat2-3" data-name="cat2"><rect class="cls-16" x="41.75" y="69.66" width="123.65" height="85.18" rx="7.86"/><path d="M106.5,147a2.75,2.75,0,1,1-2.27-2.71A2.76,2.76,0,0,1,106.5,147a.63.63,0,0,0,1.25,0,4.06,4.06,0,0,0-2.63-3.75,4,4,0,0,0-4.43,1.18,4,4,0,1,0,7.06,2.57A.63.63,0,0,0,106.5,147Z"/><rect class="cls-17" x="49.93" y="74.62" width="107.28" height="64.93" rx="7.86"/><g class="cls-32"><path class="cls-19" d="M88.35,122.32c-20.1,0-36.38,20.49-36.38,45.77h72.76C124.73,142.81,108.44,122.32,88.35,122.32Z"/><path class="cls-13" d="M77,133.34a2.6,2.6,0,1,1-2.6-2.59A2.59,2.59,0,0,1,77,133.34Z"/><circle class="cls-13" cx="87.29" cy="143.04" r="2.89"/><path class="cls-13" d="M101,133.34a2.6,2.6,0,1,1-2.6-2.59A2.59,2.59,0,0,1,101,133.34Z"/><circle class="cls-13" cx="111.02" cy="140.05" r="2.24"/><path class="cls-13" d="M68,144.56a2.71,2.71,0,1,1-2.7-2.7A2.7,2.7,0,0,1,68,144.56Z"/><circle class="cls-13" cx="76.91" cy="152.39" r="2.89"/><circle class="cls-13" cx="103.64" cy="151.88" r="2.38"/><path class="cls-13" d="M117.88,156.57a2.31,2.31,0,1,1-2.31-2.31A2.31,2.31,0,0,1,117.88,156.57Z"/><path class="cls-13" d="M64.92,157.73a2.45,2.45,0,1,1-2.45-2.46A2.45,2.45,0,0,1,64.92,157.73Z"/><path class="cls-13" d="M93.25,160.18a2.45,2.45,0,1,1-2.45-2.45A2.45,2.45,0,0,1,93.25,160.18Z"/><path class="cls-2" d="M127.54,144.33l.72-2.44s.08-.66-.86-1L112.15,135s-1.23-.72-1.56.16-2.71,4.77-2.71,4.77-.68,1,.15,1.45,13.79,5.34,13.79,5.34l3.32,1.38s1,.37,1.21-.13S127.54,144.33,127.54,144.33Z"/><path class="cls-17" d="M131.53,127.19s1.29-6.66.23-7.91-2.07.09-2.6,1.78-1.35,4.86-1.35,4.86l-3.34-6.71s7.43-5.41,7.7-6.4.35-1.65-.17-1.66a14.84,14.84,0,0,0-2.1.42s2.51-2.42,1.73-3.28-3.49,1.12-3.49,1.12,1-3.67.52-4.38-3.48,3.47-4.32,5S122,114.2,122,114.2s-1,.78-.95,1.2-1.23,1.35-1.42,1.52-1.71,3.34-3.14,6.56-3.55,7.61-3.55,7.61l-1,2s-1.11,1.63,1.2,2.29,11.42,4.39,11.42,4.39l2.89,1.11s.87,1.22,1.58-1.58S131.53,127.19,131.53,127.19Z"/><path class="cls-27" d="M125.83,149.48c5-14,7.12-28.68,5.93-30.2-1.65-2.1-2.68,1.49-3.95,6.64l-3.34-6.71s8-5.45,8-7.62-12.56,4-13.66,6.25c-.71,1.47-5,13.48-12.15,23.91"/><path class="cls-27" d="M129.1,111.77s3.3-2,2.53-3.48-10.8,5.66-10.55,7.53"/><path class="cls-27" d="M127.79,109.62s2-4.08.87-4.59-5.39,6.29-5.88,8.37"/><line class="cls-27" x1="128.44" y1="141.27" x2="111.07" y2="134.59"/><line class="cls-27" x1="126.16" y1="148.52" x2="107.36" y2="140.73"/><line class="cls-27" x1="126.19" y1="140.41" x2="123.51" y2="147.42"/><line class="cls-27" x1="122.86" y1="139.13" x2="120.17" y2="146.04"/><line class="cls-27" x1="119.74" y1="137.8" x2="117.12" y2="144.62"/><line class="cls-27" x1="116.29" y1="136.52" x2="113.91" y2="143.33"/><line class="cls-27" x1="113.38" y1="135.46" x2="110.54" y2="142.01"/></g><path class="cls-33" d="M74,101.83a5.51,5.51,0,1,0,5.51-5.46A5.49,5.49,0,0,0,74,101.83Z"/><path class="cls-34" d="M96.22,123.77c0,2.54-3.53,4.59-7.87,4.59s-7.87-2.05-7.87-4.59,3.52-4.58,7.87-4.58S96.22,121.24,96.22,123.77Z"/><path class="cls-19" d="M98,84.88H91.1c-4.6,0-8.36,4.28-8.36,9.52v10.73c0,.3,0,.6,0,.89a4.61,4.61,0,0,0-.12,1v13.43a4.31,4.31,0,0,0,4.31,4.3h2.75a4.31,4.31,0,0,0,4.3-4.3v-5.78h4c4.6,0,8.37-4.29,8.37-9.52V94.4C106.39,89.16,102.62,84.88,98,84.88Z"/><path class="cls-35" d="M92.54,97.9a1.56,1.56,0,1,0,1.56-1.55A1.56,1.56,0,0,0,92.54,97.9Z"/><path class="cls-35" d="M102.75,97.68a1.33,1.33,0,1,0,1.33-1.33A1.34,1.34,0,0,0,102.75,97.68Z"/><path class="cls-36" d="M101.26,104.06s-.78,2.28-2.44,2.44-2.95-1.68-3-3.11Z"/><path class="cls-35" d="M100.72,103.91l-.06.17c.06-.17,0,0,0,.09s-.09.18-.14.26a3.43,3.43,0,0,1-.79,1.07,1.58,1.58,0,0,1-1.3.44,2.38,2.38,0,0,1-1.33-.85,3.37,3.37,0,0,1-.49-.81,2.89,2.89,0,0,1-.24-.89l-.55.55,4.8.59.68.09a.57.57,0,0,0,.56-.56.58.58,0,0,0-.56-.56l-4.8-.59-.68-.08a.55.55,0,0,0-.56.56A4.08,4.08,0,0,0,97.83,107a3.06,3.06,0,0,0,3.46-1.67,6.17,6.17,0,0,0,.51-1.07.56.56,0,0,0-1.08-.3Z"/><circle class="cls-9" cx="91" cy="103.64" r="3.88"/><path class="cls-9" d="M105.35,101a2.59,2.59,0,0,1,.68.09v4a8.29,8.29,0,0,1-.14,1.74,3.19,3.19,0,0,1-.54,0,3,3,0,1,1,0-5.9Z"/><polygon class="cls-7" points="99.51 96.34 99.19 101.66 101.73 100.11 99.51 96.34"/><path d="M84.63,99.76l1.2-6.51s6.74,2.16,11.89-2-3.31-5.78-1.94-2.71,6.08,4.33,11.93,3.69c8.7-1,8.91-11.47,3.92-14.55s-10.66.54-10.66.54,2.6-5.21-3.9-7c-5.36-1.43-9.36,3.1-9.95,5.1,0,0-8.82.87-12.74,6.41A15.62,15.62,0,0,0,74,101a36.11,36.11,0,0,0,8.5,9.29S83.27,102.49,84.63,99.76Z"/><path class="cls-17" d="M74,101.83a5.51,5.51,0,1,0,5.51-5.46A5.49,5.49,0,0,0,74,101.83Z"/><path class="cls-37" d="M83.2,102.55A4.44,4.44,0,0,0,83,101.1a3.36,3.36,0,0,0-1.76-2.2,4.39,4.39,0,0,0-2.32-.33.69.69,0,0,0-.68.68.68.68,0,0,0,.68.69,5.46,5.46,0,0,1,1,0H80l.19,0,.37.11c.17.06-.14-.07,0,0l.14.07c.1.06.19.14.29.19-.14-.07-.11-.09-.06,0l.06,0,.11.1c.07.07.13.16.2.23-.16-.16,0-.07,0,0l.08.12a2,2,0,0,1,.14.25l.06.13c0,.07-.07-.18,0-.08l0,.06.09.26a4,4,0,0,1,.11.47s0,.07,0,.1v-.07a1.36,1.36,0,0,0,0,.2,3.09,3.09,0,0,1,0,.43.69.69,0,0,0,1.38,0Z"/><rect class="cls-1" x="49.93" y="74.62" width="107.28" height="64.93" rx="7.86"/><rect class="cls-27" x="49.93" y="74.62" width="107.28" height="64.93" rx="7.86"/></g><g id="cat2-4" data-name="cat2"><rect class="cls-16" x="248.76" y="215.02" width="124.8" height="85.97" rx="7.93"/><path d="M314.11,293a2.78,2.78,0,1,1-2.29-2.74,2.81,2.81,0,0,1,2.29,2.74.63.63,0,0,0,1.25,0A4,4,0,1,0,312.1,297a4.08,4.08,0,0,0,3.26-3.95A.63.63,0,0,0,314.11,293Z"/><rect class="cls-17" x="257.02" y="220.02" width="108.28" height="65.54" rx="7.93"/><g class="cls-38"><path class="cls-39" d="M246.26,284s16.35-15.61,33.75-18.83,52.25-2.91,71.11,22-27.49,47-28.77,47.15-76.57-12.44-79.45-14.61S229.16,304.61,246.26,284Z"/><path class="cls-39" d="M317.26,271.14s28.2,56.64,21.89,67.45-53,21.14-76.34,9.32c-27.26-13.82,8.61-71.22,17.08-84.44Z"/><path class="cls-17" d="M273.56,284a6.46,6.46,0,1,0,6.45-6.45A6.46,6.46,0,0,0,273.56,284Z"/></g><rect class="cls-27" x="257.02" y="220.02" width="108.28" height="65.54" rx="7.93"/><ellipse class="cls-40" cx="298.58" cy="265.62" rx="14.72" ry="22.76" transform="translate(3.9 535.56) rotate(-84.15)"/><path class="cls-41" d="M286.57,243.21a6,6,0,1,0,6-5.91A5.93,5.93,0,0,0,286.57,243.21Z"/><path class="cls-42" d="M312.53,224.87h-7.48c-5,0-9.05,4.64-9.05,10.3v11.61c0,.32,0,.65,0,1a4.59,4.59,0,0,0-.13,1.06v14.52a4.68,4.68,0,0,0,4.66,4.66h3a4.67,4.67,0,0,0,4.66-4.66v-6.25h4.33c5,0,9.05-4.64,9.05-10.3V235.17C321.58,229.51,317.51,224.87,312.53,224.87Z"/><path class="cls-30" d="M306.6,239a1.69,1.69,0,1,0,1.69-1.68A1.69,1.69,0,0,0,306.6,239Z"/><path class="cls-30" d="M317.65,238.72a1.44,1.44,0,1,0,1.44-1.44A1.44,1.44,0,0,0,317.65,238.72Z"/><path class="cls-43" d="M316,245.62s-.85,2.47-2.64,2.64-3.2-1.82-3.3-3.37Z"/><path class="cls-30" d="M315.53,245.48c0,.06,0,.12-.07.19.06-.16,0,.06,0,.11l-.15.29a4.2,4.2,0,0,1-.87,1.17,1.75,1.75,0,0,1-1.46.49,2.54,2.54,0,0,1-1.5-.94,3.48,3.48,0,0,1-.8-1.9l-.53.53,5.2.64.74.09a.53.53,0,0,0,0-1.05l-5.2-.64-.74-.09a.52.52,0,0,0-.52.52,4.35,4.35,0,0,0,2.77,3.78A3.22,3.22,0,0,0,316,246.9a5.41,5.41,0,0,0,.54-1.14C316.77,245.12,315.75,244.85,315.53,245.48Z"/><path class="cls-9" d="M300.74,245.17a4.2,4.2,0,1,0,4.19-4.2A4.18,4.18,0,0,0,300.74,245.17Z"/><path class="cls-9" d="M320.46,242.33a3.06,3.06,0,0,1,.74.09v4.35a9,9,0,0,1-.16,1.89,3.68,3.68,0,0,1-.58.05,3.19,3.19,0,1,1,0-6.38Z"/><polygon class="cls-26" points="314.14 237.28 313.8 243.02 316.54 241.35 314.14 237.28"/><path d="M298,243l1.38-9.09s25.15,3.16,33.3-9.06-.41-17.05-4.56-16.36-9,6.63-9,6.63,3.86-5.25,0-6.08-8.12,3.18-10.34,7.32c0,0-16.58-1.54-22.18,8.49s-1.06,17.15,9.18,27.51l.69-5.8Z"/><path class="cls-17" d="M286.57,243.21a6,6,0,1,0,6-5.91A5.93,5.93,0,0,0,286.57,243.21Z"/><path class="cls-44" d="M296.4,244a4.72,4.72,0,0,0-.19-1.54,3.6,3.6,0,0,0-1.87-2.33,4.66,4.66,0,0,0-2.45-.34.67.67,0,0,0-.65.64c0,.32.29.69.65.65a4.79,4.79,0,0,1,1.07,0h.11s-.14,0,0,0l.2,0,.41.13c.16.06-.12-.06,0,0l.16.08a2.16,2.16,0,0,0,.31.19s-.14-.1-.05,0l.06.05.12.11a2.62,2.62,0,0,0,.22.25c-.1-.07-.08-.11,0,0l0,0,.08.12a1.51,1.51,0,0,1,.15.28.61.61,0,0,1,.07.14c0,.07-.07-.17,0-.07l0,.07c0,.09.07.19.1.29a4,4,0,0,1,.11.5s0,.07,0,.11,0-.19,0-.05l0,.21a3.68,3.68,0,0,1,0,.47.66.66,0,0,0,.65.65.66.66,0,0,0,.65-.65Z"/><path class="cls-45" d="M308.75,216.38s-16.57,17.13-23.44,22.34c0,0-8.94-19.78-3.86-25.3C285.51,209,305.35,211.6,308.75,216.38Z"/><line class="cls-46" x1="303.27" y1="213.16" x2="283.07" y2="233.08"/><path class="cls-2" d="M313.36,259l2.7,10-20.46,6.48-1.05-4.19L287,266.77l3.13-8.46,8.95,7,.59.48s.32.56,2-.35Z"/><polyline class="cls-46" points="314.15 258.51 294.64 269.25 294.52 271.8"/><line class="cls-46" x1="289.64" y1="258.29" x2="300.27" y2="266.15"/><path class="cls-46" d="M289.64,270s-13.8,9.15-23.22,5.48"/><circle class="cls-46" cx="289.3" cy="269.89" r="1.54"/><path class="cls-46" d="M306.93,273.38a1.59,1.59,0,1,0,1.59-1.58A1.59,1.59,0,0,0,306.93,273.38Z"/><path class="cls-46" d="M308.52,273.38s5.63,16.25,15.46,21"/></g><g id="cat2-5" data-name="cat2"><rect class="cls-16" x="398.23" y="259.61" width="147.03" height="101.29" rx="9.35"/><path d="M475.33,351.53a3.39,3.39,0,0,1-2.21,3.18,3.38,3.38,0,0,1-4.07-4.92,3.38,3.38,0,0,1,6.28,1.74.63.63,0,0,0,1.25,0,4.63,4.63,0,1,0-3.75,4.55,4.69,4.69,0,0,0,3.75-4.55A.63.63,0,0,0,475.33,351.53Z"/><rect class="cls-19" x="407.96" y="265.5" width="127.57" height="77.21" rx="9.35"/><path d="M469,309.64s19.17,9.18,26.36-4.26-4.27-29.95-13.58-32.35S465.16,297,469,309.64Z"/><path d="M460.76,310.7s-8.36,6.26-21.14,1.47-4.93-28.22,0-35.41,16-11.58,20.9-9.32S469.5,296,460.76,310.7Z"/><circle cx="435.51" cy="265.2" r="9.18" transform="translate(-36.58 457.9) rotate(-53.54)"/><path class="cls-19" d="M489.31,291.36s-3.08-7-5.68-6.61-1.87,5-1.51,7.49,1.57,5.64-1.17,8.55S491.71,299.34,489.31,291.36Z"/><path class="cls-19" d="M475.25,271.72H467.4c-5.22,0-9.49,4.86-9.49,10.8v12.17c0,.34,0,.68,0,1a5,5,0,0,0-.13,1.11v15.23a4.9,4.9,0,0,0,4.89,4.88h3.11a4.9,4.9,0,0,0,4.89-4.88v-6.56h4.54c5.22,0,9.49-4.86,9.49-10.8V282.52C484.74,276.58,480.47,271.72,475.25,271.72Z"/><path class="cls-9" d="M462.88,293a4.4,4.4,0,1,0,4.4-4.39A4.4,4.4,0,0,0,462.88,293Z"/><path class="cls-9" d="M483.56,290a3.32,3.32,0,0,1,.77.1v4.56a9.24,9.24,0,0,1-.16,2,4.07,4.07,0,0,1-.61.06,3.35,3.35,0,0,1,0-6.7Z"/><path class="cls-30" d="M469,286.5a1.77,1.77,0,1,0,1.77-1.77A1.77,1.77,0,0,0,469,286.5Z"/><path class="cls-30" d="M480.61,286.24a1.51,1.51,0,1,0,1.51-1.51A1.52,1.52,0,0,0,480.61,286.24Z"/><path class="cls-43" d="M479.19,294.37s-.89,2.59-2.77,2.77-3.36-1.91-3.46-3.53Z"/><path class="cls-30" d="M478.65,294.22a1.67,1.67,0,0,1-.08.2c.07-.17,0,.06-.05.12l-.15.3a4.09,4.09,0,0,1-.92,1.22,1.82,1.82,0,0,1-1.52.52,2.67,2.67,0,0,1-1.57-1,3.63,3.63,0,0,1-.84-2l-.56.56,5.45.66.78.1c.3,0,.55-.28.55-.56a.57.57,0,0,0-.55-.56l-5.45-.66-.78-.1a.57.57,0,0,0-.56.56,4.58,4.58,0,0,0,2.92,4c1.62.51,3-.53,3.83-1.86a6.26,6.26,0,0,0,.57-1.2C480,293.84,478.88,293.55,478.65,294.22Z"/><polygon class="cls-26" points="476.94 284.73 476.57 290.75 479.45 289 476.94 284.73"/><path d="M455.63,270.1h0c.31-4.53,2.9-8.72,6.22-8.78,7.32-.14,7.18,5.32,7.18,5.32,12.5-15.44,28.63-6.25,23.43,5.08s-25.25,9.56-25.25,9.56a19.26,19.26,0,0,0-2.85-.15c-2.38.48-4,3.41-4.76,7.14C457.82,297.52,450.87,277.3,455.63,270.1Z"/><path d="M454.27,283.94a7.09,7.09,0,0,1,3.25.79v1.92a5.4,5.4,0,1,0-3.25,9.68,5.4,5.4,0,0,0,3.25-1.08v1.93a7,7,0,1,1-3.25-13.24Z"/><path class="cls-17" d="M448,291a6.25,6.25,0,1,0,6.25-6.2A6.22,6.22,0,0,0,448,291Z"/><path class="cls-44" d="M458.34,291.77a5.18,5.18,0,0,0-.2-1.62,3.76,3.76,0,0,0-2-2.44,4.85,4.85,0,0,0-2.58-.37.72.72,0,0,0-.69.69c0,.34.31.73.69.69a6,6,0,0,1,1.12,0l.12,0s-.16,0,0,0l.22,0a3.38,3.38,0,0,1,.42.13c.18.06-.12-.06,0,0l.16.08.15.09a1.36,1.36,0,0,0,.17.12s-.13-.11,0,0l.06.06.12.11a2,2,0,0,0,.24.26c-.12-.08-.08-.11,0,0l0,.05.09.13a2.69,2.69,0,0,1,.16.29.61.61,0,0,0,.07.14c0,.08-.07-.17,0-.07a.14.14,0,0,0,0,.07c0,.1.08.2.11.3a5,5,0,0,1,.12.53s0,.08,0,.12,0-.2,0-.05a1.5,1.5,0,0,1,0,.22,4,4,0,0,1,0,.49.69.69,0,0,0,1.38,0Z"/><g class="cls-47"><path class="cls-48" d="M412.76,374.73c4.81-37.68,37.62-65.32,59.76-57.3,17.62,6.38,25.34,41.69,27.93,57.3Z"/><rect class="cls-49" x="452.97" y="309.54" width="21.71" height="10.76" rx="4.75" transform="translate(927.65 629.83) rotate(180)"/><line class="cls-50" x1="472.52" y1="310.08" x2="472.52" y2="319.75"/><line class="cls-50" x1="470.08" y1="309.54" x2="470.08" y2="320.3"/><line class="cls-50" x1="467.51" y1="309.54" x2="467.51" y2="320.3"/><line class="cls-50" x1="464.94" y1="309.54" x2="464.94" y2="320.3"/><line class="cls-50" x1="462.37" y1="309.54" x2="462.37" y2="320.3"/><line class="cls-50" x1="459.8" y1="309.54" x2="459.8" y2="320.3"/><line class="cls-50" x1="457.23" y1="309.54" x2="457.23" y2="320.3"/><line class="cls-50" x1="454.67" y1="310.39" x2="454.67" y2="319.45"/><path class="cls-51" d="M428.66,287.09c1.15-.77,2.32,4,2.9,7.18-.21-2.61-.43-6.85.55-7.15s2.11,4.27,2.62,7.09c-.22-2.61-.47-7,.46-7.09,1.2-.1,2.08,3.95,2.59,7.1-.29-2.75-.45-6.1.49-6.29,1.63-.33,2.11,1.62,2.92,6.16s2.11,7.62,8.27,10.22c5.4,2.27,11.78,5.53,17.75,25.33l-17.42.82c0-.5,0-1-.08-1.5-1.21-18.49-11.6-17.84-16.53-21.57S426.44,288.58,428.66,287.09Z"/><path class="cls-48" d="M437.54,374.73c7.8-10.08,13-28.36,12.23-44.73L467,328.93c.92,3,1.84,6.39,2.75,10.25,3.84,16.41,1.34,28.37-1.46,35.55Z"/><path class="cls-49" d="M468.44,334H449.85c0-1.69,0-3.37-.14-5-.08-1.23-.2-2.37-.36-3.44l16.25-.79C466.56,327.42,467.5,330.48,468.44,334Z"/><line class="cls-50" x1="463" y1="324.86" x2="465.13" y2="333.99"/><line class="cls-50" x1="459.6" y1="325.02" x2="460.76" y2="333.99"/><line class="cls-50" x1="456.13" y1="325.02" x2="456.68" y2="333.99"/><line class="cls-50" x1="452.97" y1="325.34" x2="453.27" y2="333.74"/><path class="cls-19" d="M487.08,294.33c.71-4.13-3.29-8.56-2-9.6s8.71,5.66,6.62,12.42-9.69,8-7,18.08A84.86,84.86,0,0,0,490.3,329l-17.33.45c-1.13-12.15.07-21.06,1.46-24C476.07,302.05,486.37,298.45,487.08,294.33Z"/><path class="cls-48" d="M484.83,374.73c-3.32-9.44-9.32-27.39-11-38.47q-.6-3.92-.9-7.49l16.54-1.52A281.72,281.72,0,0,0,505.8,356.5a37,37,0,0,1,5.74,18.23Z"/><path class="cls-28" d="M473.45,333.71c-.42-3.14-.67-6.1-.81-8.85h15.71c1.2,2.66,2.58,5.5,4.07,8.4Z"/><line class="cls-27" x1="486.12" y1="325.02" x2="488.45" y2="333.71"/><line class="cls-27" x1="482.79" y1="325.02" x2="483.92" y2="333.46"/><line class="cls-27" x1="479.77" y1="324.86" x2="480.2" y2="333.55"/><line class="cls-27" x1="476.14" y1="324.86" x2="476.8" y2="333.63"/></g><rect class="cls-27" x="407.96" y="265.5" width="127.57" height="77.21" rx="9.35"/></g><g id="cat2-6" data-name="cat2"><rect class="cls-13" x="387.89" y="15.64" width="245.47" height="182.93" rx="13.61"/><path class="cls-13" d="M513.55,221.54H492.16a5.32,5.32,0,0,1-4.88-7.44l11.52-26.62,9.87-22.78a5.32,5.32,0,0,1,9.77,0l9.86,22.78,11.53,26.62a5.33,5.33,0,0,1-4.89,7.44Z"/><path class="cls-27" d="M520.08,178.05a6.29,6.29,0,1,1-6.29-6.29A6.29,6.29,0,0,1,520.08,178.05Z"/><rect class="cls-19" x="402.56" y="29.69" width="220.16" height="134.53" rx="6.24"/><rect class="cls-19" x="416.88" y="34.62" width="150.38" height="113.51" rx="13.45" transform="translate(984.14 182.76) rotate(180)"/><path class="cls-28" d="M431.56,45A2.55,2.55,0,1,1,429,42.44,2.56,2.56,0,0,1,431.56,45Z"/><path class="cls-22" d="M441.68,45a2.54,2.54,0,1,1-2.54-2.57A2.55,2.55,0,0,1,441.68,45Z"/><path class="cls-52" d="M451.81,45a2.54,2.54,0,1,1-2.54-2.57A2.56,2.56,0,0,1,451.81,45Z"/><line class="cls-19" x1="417.22" y1="54.02" x2="567.26" y2="54.02"/><rect class="cls-11" x="530.72" y="101.59" width="28.01" height="17.46"/><line class="cls-11" x1="534.15" y1="106.18" x2="554.49" y2="106.18"/><line class="cls-11" x1="534.15" y1="109.36" x2="554.49" y2="109.36"/><line class="cls-11" x1="534.15" y1="112.54" x2="554.49" y2="112.54"/><path class="cls-26" d="M497.54,83.65V63.16a20.49,20.49,0,1,0,20,16.17Z"/><path class="cls-9" d="M520.08,75.74a20.5,20.5,0,0,0-20-16.17V80.06Z"/><path class="cls-11" d="M459,64.37H434.45a1.72,1.72,0,0,1-1.73-1.72h0a1.72,1.72,0,0,1,1.73-1.73H459a1.72,1.72,0,0,1,1.72,1.73h0A1.72,1.72,0,0,1,459,64.37Z"/><line class="cls-11" x1="434.49" y1="66.94" x2="458.26" y2="66.94"/><line class="cls-11" x1="434.49" y1="70.12" x2="458.26" y2="70.12"/><line class="cls-11" x1="434.49" y1="73.29" x2="458.26" y2="73.29"/><polyline class="cls-11" points="462.5 63.19 471.48 63.19 484.39 75.03"/><path class="cls-11" d="M557,66.37H532.44a1.72,1.72,0,0,1-1.72-1.72h0a1.72,1.72,0,0,1,1.72-1.73H557a1.72,1.72,0,0,1,1.73,1.73h0A1.72,1.72,0,0,1,557,66.37Z"/><line class="cls-11" x1="532.49" y1="68.94" x2="556.26" y2="68.94"/><line class="cls-11" x1="532.49" y1="72.12" x2="556.26" y2="72.12"/><line class="cls-11" x1="532.49" y1="75.29" x2="556.26" y2="75.29"/><line class="cls-11" x1="532.49" y1="78.59" x2="556.26" y2="78.59"/><line class="cls-11" x1="532.49" y1="81.77" x2="556.26" y2="81.77"/><line class="cls-11" x1="532.49" y1="84.95" x2="556.26" y2="84.95"/><polyline class="cls-11" points="512.5 72.69 521.18 65.58 528.88 65.58"/><polyline class="cls-11" points="436.28 91.8 436.28 132.06 497.21 132.06"/><polygon class="cls-53" points="436.28 92.03 434.1 92.03 435.19 90.14 436.28 88.26 437.36 90.14 438.45 92.03 436.28 92.03"/><polygon class="cls-53" points="496.56 132.06 496.56 129.89 498.45 130.97 500.33 132.06 498.45 133.15 496.56 134.24 496.56 132.06"/><polyline class="cls-12" points="431.23 128.74 446.05 115.38 458.24 128.49 473.62 100.33 484.86 127.81"/><path class="cls-54" d="M426.15,108.87s.54-.56,1.44-1.38"/><path class="cls-55" d="M430.56,105c3.94-3,9.63-6,13.25-2.52,6,5.77,4.57,10.21,16.6,7.62,11.31-2.43,25.19.93,29.27,20.23"/><path class="cls-54" d="M490,132.26q.16,1,.3,2"/><g class="cls-56"><path class="cls-52" d="M615.7,86.16s37,14.46,56.59,77l-25.06,12.42-18.54-47.34Z"/><path class="cls-17" d="M505.42,98.54s-6.3-4.05-5.52-6a1.74,1.74,0,0,1,2.62-.84s-1.88-1.16-1-2.43a1.74,1.74,0,0,1,2.05-.8s-1.33-2-.05-2.68a5.14,5.14,0,0,1,3.21-.26,8.21,8.21,0,0,1-.7-2.2c0-.57.86-1.84,3.55-1.21S518,86,519.94,86.94s4.12,3.28,4.18,2.54.9-5.46,2.73-6.84,2.56-1.6,2.89,1,.24,9.92,3.79,15.3,4.76,9,8.51,13.32,5.47,6.56,5.47,6.56l-16.9,13.76s-16.4-24.69-16.52-24.85S508.65,101.05,505.42,98.54Z"/><path class="cls-27" d="M502,91.58s-2.1-3.42,1.83-3,9.25,4.06,11.82,6"/><path class="cls-27" d="M519.89,102.3s-1.44-4.39,4.83-6.21c0,0-2.39-9.32,2.13-13.45s2.06,6.51,5.08,13,6.45,12.76,9.67,16.17,6,7.14,6,7.14l-17.1,13.73s-5.84-8.88-14.85-22.65S498.69,96,499.9,92.56C501.39,88.4,512,98.2,512,98.2"/><path class="cls-27" d="M503.79,88.58s-2-2.49.54-3.14a4.28,4.28,0,0,1,1.58,0c3.09.4,8.23,3,12,5.9"/><path class="cls-27" d="M524.15,90.18s-7.36-6.87-15.75-8c-3-.41-2.91,2.61.07,3.87"/><path class="cls-52" d="M559.82,127.47a53.47,53.47,0,0,1-7.14-6,135.29,135.29,0,0,1-14-16.51l-18.58,15.92s20.27,31.46,32.44,35.39,40-27.71,40-27.71L594.7,87a55.07,55.07,0,0,0-9.43,6.6c-6.89,6.22-18.94,17.34-32.59,27.94"/><path class="cls-19" d="M544.72,112.83c-3.62-4.37-6.06-7.82-6.06-7.82l-18.58,15.92s2.35,3.65,5.94,8.63Z"/><path class="cls-19" d="M540.16,111.05a1.27,1.27,0,1,1-1.27-1.26A1.26,1.26,0,0,1,540.16,111.05Z"/><path class="cls-2" d="M645.18,166v-7.78c0-41-17.44-74.24-39-74.24s-39,33.24-39,74.24V166Z"/><line class="cls-27" x1="606.1" y1="102.55" x2="606.1" y2="165.96"/><path class="cls-19" d="M606.22,103.21l15-13.54c-4.62-3.69-9.69-5.73-15-5.73-5.15,0-10.52,2.27-15,5.72Z"/><path class="cls-27" d="M572.86,119.82a128.13,128.13,0,0,0-5.6,38.36V166h77.92v-7.78A127.71,127.71,0,0,0,639.34,119"/><path class="cls-27" d="M621.25,89.66c-4.63-3.68-9.7-5.72-15-5.72s-10.36,2-15,5.68"/></g><rect class="cls-27" x="402.56" y="29.69" width="220.16" height="134.53" rx="6.24"/><path class="cls-57" d="M621.69,93.68,613.4,81.23a12.49,12.49,0,0,0-14.61,0l-8.28,12.45a6.18,6.18,0,0,0,1.72,8.58l1.18.79a6.2,6.2,0,0,0,8.58-1.72l4.11-6.17,4.1,6.17a6.2,6.2,0,0,0,8.58,1.72l1.19-.79A6.2,6.2,0,0,0,621.69,93.68Z"/><path class="cls-57" d="M607.42,92.21a1.2,1.2,0,1,1-1.2-1.2A1.2,1.2,0,0,1,607.42,92.21Z"/><path class="cls-33" d="M622.57,62.79a6.46,6.46,0,1,1-6.46-6.41A6.43,6.43,0,0,1,622.57,62.79Z"/><path class="cls-19" d="M594.42,42.9h8.12c5.39,0,9.81,5,9.81,11.17V66.66c0,.35,0,.7-.05,1a4.89,4.89,0,0,1,.14,1.15V84.61a5.06,5.06,0,0,1-5.05,5h-3.22a5.07,5.07,0,0,1-5.06-5V77.83h-4.69c-5.4,0-9.81-5-9.81-11.17V54.07C584.61,47.93,589,42.9,594.42,42.9Z"/><path d="M610.22,62.59l-1.5-9.86s-27.27,3.42-36.11-9.83.45-18.49,4.95-17.74,9.75,7.19,9.75,7.19-4.19-5.69,0-6.59,8.8,3.45,11.21,7.94c0,0,18-1.67,24.05,9.2s1.16,18.6-10,29.83l-.74-6.28Z"/><path d="M641.5,31A11.55,11.55,0,1,1,630,19.42,11.55,11.55,0,0,1,641.5,31Z"/><path class="cls-9" d="M607.77,64.52a4.66,4.66,0,1,1-4.66-4.66A4.65,4.65,0,0,1,607.77,64.52Z"/><path class="cls-9" d="M585.86,60.8a3.18,3.18,0,0,0-.82.1v4.83a9.85,9.85,0,0,0,.07,2.11,6.16,6.16,0,0,0,.75,0,3.55,3.55,0,1,0,0-7.09Z"/><path class="cls-35" d="M599.36,58a1.66,1.66,0,1,1-1.66-1.65A1.66,1.66,0,0,1,599.36,58Z"/><path class="cls-35" d="M588.51,57.77a1.42,1.42,0,1,1-1.42-1.41A1.42,1.42,0,0,1,588.51,57.77Z"/><path class="cls-36" d="M590.09,64.55s.84,2.43,2.6,2.6,3.14-1.79,3.23-3.31Z"/><path class="cls-35" d="M589.55,64.7a5.27,5.27,0,0,0,1.68,2.43,3,3,0,0,0,4.19-.73,4.57,4.57,0,0,0,1.06-2.56.56.56,0,0,0-.56-.56l-5.1.63-.73.09a.57.57,0,0,0-.56.55.56.56,0,0,0,.56.56l5.11-.62.72-.09-.55-.56a3.16,3.16,0,0,1-2,2.7c-1.07.29-1.85-.55-2.34-1.41a6.54,6.54,0,0,1-.3-.59c0-.09,0,.11,0,0l0-.07,0-.08C590.4,63.73,589.32,64,589.55,64.7Z"/><path class="cls-3" d="M606.1,57c0,3.58-2.6,6.47-5.79,6.47s-5.79-2.89-5.79-6.47,2.59-6.46,5.79-6.46S606.1,53.47,606.1,57Z"/><ellipse class="cls-3" cx="585.89" cy="56.23" rx="4.76" ry="5.78"/><polygon class="cls-7" points="592.51 56.38 592.51 62 589.57 60.21 592.51 56.38"/><path class="cls-3" d="M590.5,58s2.33-1,4,.42"/><path class="cls-17" d="M622.57,62.79a6.46,6.46,0,1,1-6.46-6.41A6.43,6.43,0,0,1,622.57,62.79Z"/><path class="cls-37" d="M613.3,63.64a3,3,0,0,1,0-.42c0-.06,0-.13,0-.19a.37.37,0,0,0,0-.11c0-.18,0,.18,0,0a4.52,4.52,0,0,1,.11-.53,2.76,2.76,0,0,1,.08-.27s0-.1.05-.15l0-.07c0-.12,0,0,0,0,.12-.19.2-.41.33-.6l0-.05c.06-.08.08,0,0,0a.73.73,0,0,0,.1-.13l.26-.26.06,0c.06-.06.1,0,0,0l.14-.1a3.24,3.24,0,0,1,.36-.2h0l.07,0,.24-.07a1,1,0,0,1,.25-.06l.09,0,.09,0h-.05a1,1,0,0,1,.29,0h.31a5.07,5.07,0,0,1,.68,0,.69.69,0,0,0,.69-.69.71.71,0,0,0-.69-.69A4.3,4.3,0,0,0,613,60.37a4.9,4.9,0,0,0-1,2.7,5.42,5.42,0,0,0,0,.57.69.69,0,1,0,1.37,0Z"/></g><g id="elementsOne"><g id="cat1"><path class="cls-19" d="M503.25.5h40a9.25,9.25,0,0,1,9.25,9.25V49.68l-9.4-8.63H503.25A9.26,9.26,0,0,1,494,31.79v-22A9.25,9.25,0,0,1,503.25.5Z"/><text class="cls-58" transform="translate(512.88 31.56)">?</text></g><g id="cat1-2" data-name="cat1"><path class="cls-19" d="M400.28,145.74H354.13a10.68,10.68,0,0,0-10.68,10.68V202.5l10.85-10h46A10.68,10.68,0,0,0,411,181.85V156.42A10.68,10.68,0,0,0,400.28,145.74Z"/><path class="cls-19" d="M366.64,170a4.64,4.64,0,1,1-4.64-4.64A4.64,4.64,0,0,1,366.64,170Z"/><path class="cls-19" d="M382.79,170a4.64,4.64,0,1,1-4.64-4.64A4.64,4.64,0,0,1,382.79,170Z"/><path class="cls-19" d="M398.94,170a4.64,4.64,0,1,1-4.64-4.64A4.64,4.64,0,0,1,398.94,170Z"/><path class="cls-19" d="M413.58,130.54H367.43a10.68,10.68,0,0,0-10.68,10.68V187.3l10.85-10h46a10.68,10.68,0,0,0,10.68-10.68V141.22A10.68,10.68,0,0,0,413.58,130.54Z"/><path class="cls-19" d="M379.94,154.78a4.64,4.64,0,1,1-4.64-4.64A4.64,4.64,0,0,1,379.94,154.78Z"/><path class="cls-19" d="M396.09,154.78a4.64,4.64,0,1,1-4.64-4.64A4.64,4.64,0,0,1,396.09,154.78Z"/><path class="cls-19" d="M412.24,154.78a4.64,4.64,0,1,1-4.64-4.64A4.64,4.64,0,0,1,412.24,154.78Z"/></g><g id="cat1-3" data-name="cat1"><path class="cls-19" d="M194.08,42.25H151.49a9.85,9.85,0,0,0-9.85,9.85V94.61l10-9.2h42.42a9.85,9.85,0,0,0,9.85-9.85V52.1A9.85,9.85,0,0,0,194.08,42.25Z"/><path class="cls-19" d="M163,64.61a4.28,4.28,0,1,1-4.28-4.28A4.29,4.29,0,0,1,163,64.61Z"/><path class="cls-19" d="M177.94,64.61a4.28,4.28,0,1,1-4.28-4.28A4.29,4.29,0,0,1,177.94,64.61Z"/><path class="cls-19" d="M192.84,64.61a4.28,4.28,0,1,1-4.28-4.28A4.29,4.29,0,0,1,192.84,64.61Z"/></g><g id="cat1-4" data-name="cat1"><path class="cls-19" d="M577,239.32H534.41a9.85,9.85,0,0,0-9.85,9.85v42.51l10-9.2H577a9.85,9.85,0,0,0,9.85-9.85V249.17A9.85,9.85,0,0,0,577,239.32Z"/><path class="cls-19" d="M546,261.68a4.29,4.29,0,1,1-4.28-4.28A4.29,4.29,0,0,1,546,261.68Z"/><circle class="cls-19" cx="556.58" cy="261.68" r="4.28"/><path class="cls-19" d="M575.76,261.68a4.29,4.29,0,1,1-4.28-4.28A4.29,4.29,0,0,1,575.76,261.68Z"/></g><g id="cat1-5" data-name="cat1"><path class="cls-22" d="M66.69,204.62a16.48,16.48,0,0,0-7.43-11.17,17.76,17.76,0,0,0-19.23,0,16.43,16.43,0,0,0-7.42,11.17c-1.79,10,7,15.34,8.64,17.35a7.31,7.31,0,0,1,1.65,2,13.2,13.2,0,0,1,.44,2.29H56a13.2,13.2,0,0,1,.44-2.29A7.51,7.51,0,0,1,58,222C59.69,220,68.47,214.6,66.69,204.62Z"/><path class="cls-17" d="M47,227.33s0-9.45-.69-10.8-3.88-6.08-4.42-7.08.57-2.15,1.42-.68c.72,1.26,3.82,5.58,4.51,7.34s1.28,11.7,1.28,11.7Z"/><path class="cls-17" d="M52.24,227.33s0-9.45.7-10.8,3.87-6.08,4.41-7.08-.56-2.15-1.41-.68c-.73,1.26-3.83,5.58-4.52,7.34s-1.28,11.7-1.28,11.7Z"/><path class="cls-17" d="M56.82,209.13a8,8,0,0,1-5.07.18l0,0a3.9,3.9,0,0,1-4.54-.39,15,15,0,0,1-4.37.75v-.9a15.3,15.3,0,0,0,3.61-.53c-.93-1-1.13-2.12-.51-2.87a1.7,1.7,0,0,1,2.42-.41,2.11,2.11,0,0,1,.42,2.87,2.71,2.71,0,0,1-.64.62,3.16,3.16,0,0,0,2.67.4,2.34,2.34,0,0,1-.69-.58,1.55,1.55,0,0,1,.06-2,1.69,1.69,0,0,1,1.68-.82A1.57,1.57,0,0,1,53,206.75a2.4,2.4,0,0,1-.49,1.84,6.93,6.93,0,0,0,4-.25Zm-5.67-2.66a1.69,1.69,0,0,0-.32.33c-.35.48-.22.76-.07.95a2,2,0,0,0,.83.56,1.58,1.58,0,0,0,.52-1.36.72.72,0,0,0-.5-.61A.57.57,0,0,0,51.15,206.47Zm-3.82,1.45a1.76,1.76,0,0,0,.66-.54,1.2,1.2,0,0,0-.22-1.65c-.38-.29-.81-.19-1.19.26s.05,1.2.52,1.7A2.5,2.5,0,0,0,47.33,207.92Z"/><path class="cls-19" d="M49.62,225.25a19.43,19.43,0,0,1-6.85-1.17l.12.2c.46.94,1,8.79,2.26,11.82a2.44,2.44,0,0,0,.72,1.09,7,7,0,0,0,3.75.87,7,7,0,0,0,3.76-.87,2.35,2.35,0,0,0,.71-1.09c1.24-3,1.81-10.88,2.27-11.82,0-.07.08-.13.11-.2A19.32,19.32,0,0,1,49.62,225.25Z"/><path d="M49.62,228.8a22.46,22.46,0,0,0,6.11-.89c.13-.93.24-1.77.35-2.42a18.17,18.17,0,0,1-12.91,0c.1.65.22,1.49.35,2.42A22.45,22.45,0,0,0,49.62,228.8Z"/><path d="M49.62,232.8a22.94,22.94,0,0,0,5.47-.71c.14-.78.27-1.59.38-2.38a18.14,18.14,0,0,1-11.69,0c.11.79.24,1.6.38,2.38A22.79,22.79,0,0,0,49.62,232.8Z"/><path d="M44.53,234a13.86,13.86,0,0,0,.62,2.13l.12.25a24.25,24.25,0,0,0,4.35.45,24.26,24.26,0,0,0,4.36-.45,1.89,1.89,0,0,0,.11-.25,15,15,0,0,0,.63-2.13A18.39,18.39,0,0,1,44.53,234Z"/><rect class="cls-19" x="48.11" y="173.42" width="3.67" height="12.17" rx="1.82"/><rect class="cls-19" x="59.82" y="180.74" width="12.17" height="3.67" rx="1.82" transform="translate(-126.14 154.4) rotate(-61.81)"/><path class="cls-19" d="M36.85,187.94h0a1.83,1.83,0,0,0,.74-2.47l-4-7.51a1.82,1.82,0,0,0-2.46-.75l0,0a1.82,1.82,0,0,0-.75,2.46l4,7.52A1.82,1.82,0,0,0,36.85,187.94Z"/><path class="cls-19" d="M27.16,198v0a1.81,1.81,0,0,1-2.15,1.4l-8.35-1.75a1.83,1.83,0,0,1-1.41-2.16v0A1.83,1.83,0,0,1,17.41,194l8.34,1.76A1.82,1.82,0,0,1,27.16,198Z"/><path class="cls-19" d="M26.7,211.58v0a1.82,1.82,0,0,0-2.26-1.24l-8.18,2.4A1.82,1.82,0,0,0,15,215v0a1.81,1.81,0,0,0,2.25,1.24l8.19-2.4A1.82,1.82,0,0,0,26.7,211.58Z"/><path class="cls-19" d="M72.74,198v0a1.82,1.82,0,0,0,2.16,1.4l8.34-1.75a1.82,1.82,0,0,0,1.41-2.16v0A1.82,1.82,0,0,0,82.49,194l-8.35,1.76A1.81,1.81,0,0,0,72.74,198Z"/><path class="cls-19" d="M73.19,211.58v0a1.82,1.82,0,0,1,2.26-1.24l8.18,2.4A1.82,1.82,0,0,1,84.88,215v0a1.83,1.83,0,0,1-2.26,1.24l-8.18-2.4A1.82,1.82,0,0,1,73.19,211.58Z"/></g></g></g></g></svg>